<svg width="552" height="556" viewBox="0 0 552 556" fill="none" xmlns="http://www.w3.org/2000/svg">
<path fill-rule="evenodd" clip-rule="evenodd" d="M46.6656 100.999C-15.5245 200.049 -5.58654 400.605 116.04 483.279C230.278 560.931 310.369 527.439 471.261 430.041C486.596 420.758 500.001 408.44 511.251 393.884C498.386 414.196 481.842 431.177 462.1 443.128C301.207 540.526 221.117 574.018 106.878 496.366C-16.5744 412.451 -24.9596 207.088 40.3534 109.694C42.3511 106.716 44.4567 103.817 46.6656 100.999ZM46.6656 100.999C47.5993 99.5119 48.5492 98.0477 49.5152 96.6072C114.828 -0.786163 295.482 -12.2014 429.506 60.7076C568.543 136.343 579.215 305.952 511.251 393.884C568.747 303.112 552.765 145.832 420.344 73.7949C290.419 3.11598 116.674 11.6817 46.6656 100.999Z" fill="#253B80"/>
<path d="M304.024 528.133C142.965 572.101 21.2795 437.564 11.3864 296.489C1.49345 155.413 100.484 20.6897 244.371 21.0324C447.067 21.515 548.676 211.495 533.695 310.673C501.286 525.243 442.663 490.285 304.024 528.133Z" fill="black"/>
<path fill-rule="evenodd" clip-rule="evenodd" d="M281.84 516.261C425.491 516.261 583.709 338.909 512.843 244.757C483.84 206.225 470.269 173.351 458.474 144.782C436.74 92.1333 421.038 54.0982 325.915 22.1876C186.791 -24.4837 11.5328 125.965 28.8155 286.904C35.0562 345.018 53.766 376.992 84.946 419.455C90.002 426.34 94.5319 434.201 99.1043 442.136C107.63 456.93 116.303 471.981 128.809 481.444C165.933 509.535 228.509 516.261 281.84 516.261ZM295.075 501.751C430.761 501.751 512.803 349.134 512.803 285.744C512.803 264.714 499.319 246.197 486.293 228.31C478.604 217.751 471.074 207.412 466.573 196.905C431.767 115.655 378.918 56.2063 278.289 56.2063C142.603 56.2063 40.0643 145.135 40.0643 274.582C40.0643 317.075 50.0689 332.343 65.6978 356.195C76.3706 372.483 89.6663 392.774 104.19 428.471C135.688 505.89 212.552 503.798 271.93 502.183C280.023 501.963 287.791 501.751 295.075 501.751Z" fill="#1A73E8"/>
<path d="M512.804 285.744C512.804 349.134 430.761 501.751 295.075 501.751C234.348 501.751 139.981 516.441 104.19 428.471C68.3992 340.5 40.0647 346.093 40.0647 274.582C40.0647 145.135 142.604 56.2063 278.29 56.2063C378.919 56.2063 431.768 115.655 466.574 196.905C478.699 225.21 512.804 252.299 512.804 285.744Z" fill="#270D9F"/>
<path d="M475.048 213.915C495.044 267.782 473.308 422.523 357.741 463.958C306.018 482.502 230.277 523.802 172.044 459.977C113.811 396.152 91.442 409.557 68.8846 348.789C28.0524 238.79 87.3355 131.909 202.902 90.4751C288.611 59.7461 352.376 94.1249 407.65 152.54C426.906 172.89 464.498 185.494 475.048 213.915Z" fill="black"/>
<path d="M112.323 262.449L105.221 262.449C105.126 261.72 104.932 261.062 104.638 260.474C104.345 259.887 103.956 259.385 103.473 258.969C102.99 258.552 102.417 258.235 101.755 258.017C101.101 257.79 100.377 257.676 99.5813 257.676C98.1703 257.676 96.9535 258.022 95.9308 258.713C94.9175 259.404 94.1362 260.403 93.587 261.71C93.0472 263.017 92.7773 264.598 92.7773 266.455C92.7773 268.386 93.052 270.006 93.6012 271.313C94.1599 272.61 94.9412 273.59 95.945 274.253C96.9582 274.906 98.1561 275.233 99.5387 275.233C100.315 275.233 101.021 275.134 101.655 274.935C102.299 274.736 102.863 274.447 103.346 274.068C103.838 273.68 104.24 273.211 104.553 272.662C104.875 272.103 105.097 271.473 105.221 270.773L112.323 270.815C112.2 272.103 111.826 273.372 111.201 274.622C110.585 275.872 109.738 277.013 108.658 278.045C107.578 279.068 106.262 279.883 104.709 280.489C103.166 281.095 101.395 281.398 99.3967 281.398C96.7641 281.398 94.4061 280.82 92.3228 279.665C90.2489 278.5 88.6107 276.805 87.408 274.58C86.2054 272.354 85.604 269.646 85.604 266.455C85.604 263.254 86.2148 260.541 87.4364 258.315C88.658 256.09 90.3105 254.4 92.3938 253.244C94.4772 252.089 96.8114 251.511 99.3967 251.511C101.158 251.511 102.787 251.758 104.283 252.25C105.779 252.733 107.096 253.443 108.232 254.381C109.368 255.309 110.292 256.45 111.002 257.804C111.712 259.158 112.152 260.706 112.323 262.449ZM122.497 281.369C121.105 281.369 119.869 281.137 118.789 280.673C117.719 280.2 116.872 279.49 116.247 278.543C115.631 277.586 115.324 276.388 115.324 274.949C115.324 273.737 115.537 272.714 115.963 271.881C116.389 271.047 116.976 270.37 117.724 269.849C118.472 269.329 119.334 268.936 120.309 268.67C121.285 268.396 122.326 268.211 123.434 268.116C124.675 268.003 125.674 267.884 126.431 267.761C127.189 267.629 127.738 267.444 128.079 267.207C128.43 266.961 128.605 266.616 128.605 266.17L128.605 266.099C128.605 265.37 128.354 264.807 127.852 264.409C127.35 264.011 126.673 263.813 125.821 263.813C124.902 263.813 124.163 264.011 123.605 264.409C123.046 264.807 122.691 265.356 122.539 266.057L116.133 265.83C116.323 264.504 116.81 263.32 117.596 262.278C118.392 261.227 119.481 260.403 120.863 259.807C122.255 259.201 123.927 258.898 125.877 258.898C127.27 258.898 128.553 259.063 129.727 259.395C130.901 259.717 131.924 260.19 132.795 260.815C133.666 261.431 134.339 262.188 134.812 263.088C135.295 263.988 135.537 265.015 135.537 266.17L135.537 281L129.002 281L129.002 277.96L128.832 277.96C128.444 278.699 127.947 279.324 127.341 279.835C126.744 280.347 126.038 280.73 125.224 280.986C124.419 281.241 123.51 281.369 122.497 281.369ZM124.642 276.824C125.39 276.824 126.062 276.672 126.659 276.369C127.265 276.066 127.748 275.65 128.108 275.119C128.467 274.58 128.647 273.955 128.647 273.244L128.647 271.17C128.449 271.275 128.207 271.369 127.923 271.455C127.648 271.54 127.345 271.62 127.014 271.696C126.682 271.772 126.342 271.838 125.991 271.895C125.641 271.952 125.305 272.004 124.983 272.051C124.329 272.155 123.77 272.316 123.306 272.534C122.852 272.752 122.502 273.036 122.255 273.386C122.019 273.727 121.9 274.134 121.9 274.608C121.9 275.328 122.156 275.877 122.667 276.256C123.188 276.634 123.846 276.824 124.642 276.824ZM158.832 265.844L152.454 266.014C152.388 265.56 152.208 265.157 151.914 264.807C151.621 264.447 151.237 264.168 150.764 263.969C150.3 263.76 149.76 263.656 149.145 263.656C148.34 263.656 147.653 263.817 147.085 264.139C146.526 264.461 146.252 264.897 146.261 265.446C146.252 265.872 146.422 266.241 146.772 266.554C147.132 266.866 147.771 267.117 148.69 267.307L152.895 268.102C155.073 268.519 156.692 269.21 157.752 270.176C158.823 271.142 159.362 272.42 159.372 274.011C159.362 275.508 158.917 276.81 158.037 277.918C157.165 279.026 155.972 279.887 154.457 280.503C152.942 281.109 151.209 281.412 149.258 281.412C146.143 281.412 143.685 280.773 141.886 279.494C140.096 278.206 139.074 276.483 138.818 274.324L145.679 274.153C145.83 274.949 146.223 275.555 146.858 275.972C147.492 276.388 148.302 276.597 149.287 276.597C150.177 276.597 150.901 276.431 151.46 276.099C152.019 275.768 152.303 275.328 152.312 274.778C152.303 274.286 152.085 273.893 151.659 273.599C151.233 273.296 150.565 273.06 149.656 272.889L145.849 272.165C143.662 271.767 142.033 271.033 140.963 269.963C139.893 268.884 139.362 267.51 139.372 265.844C139.362 264.385 139.751 263.14 140.537 262.108C141.323 261.066 142.44 260.271 143.889 259.722C145.338 259.172 147.047 258.898 149.017 258.898C151.971 258.898 154.301 259.518 156.005 260.759C157.71 261.99 158.652 263.685 158.832 265.844ZM172.99 281.412C170.708 281.412 168.739 280.962 167.081 280.063C165.434 279.153 164.165 277.861 163.275 276.185C162.394 274.499 161.953 272.496 161.953 270.176C161.953 267.922 162.399 265.953 163.289 264.267C164.179 262.572 165.434 261.256 167.053 260.318C168.672 259.371 170.58 258.898 172.777 258.898C174.33 258.898 175.751 259.139 177.039 259.622C178.327 260.105 179.439 260.82 180.377 261.767C181.314 262.714 182.043 263.884 182.564 265.276C183.085 266.658 183.346 268.244 183.346 270.034L183.346 271.767L164.382 271.767L164.382 267.733L176.882 267.733C176.873 266.994 176.698 266.336 176.357 265.759C176.016 265.181 175.547 264.731 174.951 264.409C174.364 264.078 173.686 263.912 172.919 263.912C172.143 263.912 171.447 264.087 170.831 264.438C170.216 264.778 169.728 265.247 169.368 265.844C169.008 266.431 168.819 267.098 168.8 267.847L168.8 271.952C168.8 272.842 168.975 273.623 169.326 274.295C169.676 274.958 170.173 275.474 170.817 275.844C171.461 276.213 172.228 276.398 173.118 276.398C173.734 276.398 174.292 276.313 174.794 276.142C175.296 275.972 175.727 275.721 176.087 275.389C176.447 275.058 176.717 274.651 176.897 274.168L183.275 274.352C183.009 275.782 182.427 277.027 181.527 278.088C180.637 279.139 179.468 279.958 178.019 280.545C176.57 281.123 174.894 281.412 172.99 281.412ZM195.487 281L195.487 251.909L202.518 251.909L202.518 275.29L214.62 275.29L214.62 281L195.487 281ZM224.411 281.369C223.019 281.369 221.783 281.137 220.703 280.673C219.633 280.2 218.786 279.49 218.161 278.543C217.545 277.586 217.238 276.388 217.238 274.949C217.238 273.737 217.451 272.714 217.877 271.881C218.303 271.047 218.89 270.37 219.638 269.849C220.386 269.329 221.248 268.936 222.223 268.67C223.199 268.396 224.24 268.211 225.348 268.116C226.589 268.003 227.588 267.884 228.346 267.761C229.103 267.629 229.652 267.444 229.993 267.207C230.344 266.961 230.519 266.616 230.519 266.17L230.519 266.099C230.519 265.37 230.268 264.807 229.766 264.409C229.264 264.011 228.587 263.813 227.735 263.813C226.816 263.813 226.078 264.011 225.519 264.409C224.96 264.807 224.605 265.356 224.453 266.057L218.047 265.83C218.237 264.504 218.724 263.32 219.51 262.278C220.306 261.227 221.395 260.403 222.777 259.807C224.169 259.201 225.841 258.898 227.792 258.898C229.184 258.898 230.467 259.063 231.641 259.395C232.815 259.717 233.838 260.19 234.709 260.815C235.58 261.431 236.253 262.188 236.726 263.088C237.209 263.988 237.451 265.015 237.451 266.17L237.451 281L230.917 281L230.917 277.96L230.746 277.96C230.358 278.699 229.861 279.324 229.255 279.835C228.658 280.347 227.953 280.73 227.138 280.986C226.333 281.241 225.424 281.369 224.411 281.369ZM226.556 276.824C227.304 276.824 227.976 276.672 228.573 276.369C229.179 276.066 229.662 275.65 230.022 275.119C230.382 274.58 230.561 273.955 230.561 273.244L230.561 271.17C230.363 271.275 230.121 271.369 229.837 271.455C229.562 271.54 229.259 271.62 228.928 271.696C228.596 271.772 228.256 271.838 227.905 271.895C227.555 271.952 227.219 272.004 226.897 272.051C226.243 272.155 225.685 272.316 225.221 272.534C224.766 272.752 224.416 273.036 224.169 273.386C223.933 273.727 223.814 274.134 223.814 274.608C223.814 275.328 224.07 275.877 224.581 276.256C225.102 276.634 225.76 276.824 226.556 276.824ZM245.775 281L240.093 259.182L247.067 259.182L250.007 273.159L250.192 273.159L253.346 259.182L260.15 259.182L263.388 273.06L263.573 273.06L266.428 259.182L273.402 259.182L267.706 281L260.277 281L256.868 268.287L256.627 268.287L253.218 281L245.775 281ZM284.784 281L284.784 251.909L296.801 251.909C298.979 251.909 300.859 252.302 302.44 253.088C304.031 253.865 305.257 254.982 306.119 256.44C306.981 257.889 307.412 259.608 307.412 261.597C307.412 263.614 306.971 265.328 306.091 266.739C305.21 268.14 303.96 269.21 302.341 269.949C300.721 270.678 298.804 271.043 296.588 271.043L288.988 271.043L288.988 265.503L295.281 265.503C296.342 265.503 297.227 265.366 297.937 265.091C298.657 264.807 299.201 264.381 299.571 263.813C299.94 263.235 300.125 262.496 300.125 261.597C300.125 260.697 299.94 259.954 299.571 259.366C299.201 258.77 298.657 258.325 297.937 258.031C297.217 257.728 296.332 257.577 295.281 257.577L291.815 257.577L291.815 281L284.784 281ZM301.162 267.705L308.406 281L300.735 281L293.633 267.705L301.162 267.705ZM321.037 281.412C318.755 281.412 316.785 280.962 315.128 280.063C313.48 279.153 312.212 277.861 311.321 276.185C310.441 274.499 310 272.496 310 270.176C310 267.922 310.445 265.953 311.336 264.267C312.226 262.572 313.48 261.256 315.1 260.318C316.719 259.371 318.627 258.898 320.824 258.898C322.377 258.898 323.798 259.139 325.086 259.622C326.373 260.105 327.486 260.82 328.424 261.767C329.361 262.714 330.09 263.884 330.611 265.276C331.132 266.658 331.392 268.244 331.392 270.034L331.392 271.767L312.429 271.767L312.429 267.733L324.929 267.733C324.92 266.994 324.745 266.336 324.404 265.759C324.063 265.181 323.594 264.731 322.998 264.409C322.41 264.078 321.733 263.912 320.966 263.912C320.19 263.912 319.494 264.087 318.878 264.438C318.263 264.778 317.775 265.247 317.415 265.844C317.055 266.431 316.866 267.098 316.847 267.847L316.847 271.952C316.847 272.842 317.022 273.623 317.373 274.295C317.723 274.958 318.22 275.474 318.864 275.844C319.508 276.213 320.275 276.398 321.165 276.398C321.781 276.398 322.339 276.313 322.841 276.142C323.343 275.972 323.774 275.721 324.134 275.389C324.494 275.058 324.764 274.651 324.944 274.168L331.321 274.352C331.056 275.782 330.474 277.027 329.574 278.088C328.684 279.139 327.515 279.958 326.066 280.545C324.617 281.123 322.941 281.412 321.037 281.412ZM353.988 265.844L347.61 266.014C347.544 265.56 347.364 265.157 347.071 264.807C346.777 264.447 346.394 264.168 345.92 263.969C345.456 263.76 344.916 263.656 344.301 263.656C343.496 263.656 342.809 263.817 342.241 264.139C341.682 264.461 341.408 264.897 341.417 265.446C341.408 265.872 341.578 266.241 341.929 266.554C342.288 266.866 342.928 267.117 343.846 267.307L348.051 268.102C350.229 268.519 351.848 269.21 352.909 270.176C353.979 271.142 354.519 272.42 354.528 274.011C354.519 275.508 354.074 276.81 353.193 277.918C352.322 279.026 351.128 279.887 349.613 280.503C348.098 281.109 346.365 281.412 344.414 281.412C341.299 281.412 338.842 280.773 337.042 279.494C335.252 278.206 334.23 276.483 333.974 274.324L340.835 274.153C340.986 274.949 341.379 275.555 342.014 275.972C342.648 276.388 343.458 276.597 344.443 276.597C345.333 276.597 346.057 276.431 346.616 276.099C347.175 275.768 347.459 275.328 347.468 274.778C347.459 274.286 347.241 273.893 346.815 273.599C346.389 273.296 345.721 273.06 344.812 272.889L341.005 272.165C338.818 271.767 337.189 271.033 336.119 269.963C335.049 268.884 334.519 267.51 334.528 265.844C334.519 264.385 334.907 263.14 335.693 262.108C336.479 261.066 337.596 260.271 339.045 259.722C340.494 259.172 342.203 258.898 344.173 258.898C347.127 258.898 349.457 259.518 351.162 260.759C352.866 261.99 353.808 263.685 353.988 265.844ZM368.147 281.412C365.864 281.412 363.895 280.962 362.238 280.063C360.59 279.153 359.321 277.861 358.431 276.185C357.55 274.499 357.11 272.496 357.11 270.176C357.11 267.922 357.555 265.953 358.445 264.267C359.335 262.572 360.59 261.256 362.209 260.318C363.828 259.371 365.737 258.898 367.934 258.898C369.487 258.898 370.907 259.139 372.195 259.622C373.483 260.105 374.596 260.82 375.533 261.767C376.471 262.714 377.2 263.884 377.721 265.276C378.241 266.658 378.502 268.244 378.502 270.034L378.502 271.767L359.539 271.767L359.539 267.733L372.039 267.733C372.029 266.994 371.854 266.336 371.513 265.759C371.172 265.181 370.703 264.731 370.107 264.409C369.52 264.078 368.843 263.912 368.076 263.912C367.299 263.912 366.603 264.087 365.988 264.438C365.372 264.778 364.884 265.247 364.525 265.844C364.165 266.431 363.975 267.098 363.956 267.847L363.956 271.952C363.956 272.842 364.132 273.623 364.482 274.295C364.832 274.958 365.329 275.474 365.973 275.844C366.617 276.213 367.384 276.398 368.275 276.398C368.89 276.398 369.449 276.313 369.951 276.142C370.453 275.972 370.883 275.721 371.243 275.389C371.603 275.058 371.873 274.651 372.053 274.168L378.431 274.352C378.166 275.782 377.583 277.027 376.684 278.088C375.793 279.139 374.624 279.958 373.175 280.545C371.726 281.123 370.05 281.412 368.147 281.412ZM388.2 281.369C386.808 281.369 385.572 281.137 384.493 280.673C383.422 280.2 382.575 279.49 381.95 278.543C381.334 277.586 381.027 276.388 381.027 274.949C381.027 273.737 381.24 272.714 381.666 271.881C382.092 271.047 382.679 270.37 383.427 269.849C384.175 269.329 385.037 268.936 386.012 268.67C386.988 268.396 388.029 268.211 389.137 268.116C390.378 268.003 391.377 267.884 392.135 267.761C392.892 267.629 393.441 267.444 393.782 267.207C394.133 266.961 394.308 266.616 394.308 266.17L394.308 266.099C394.308 265.37 394.057 264.807 393.555 264.409C393.053 264.011 392.376 263.813 391.524 263.813C390.605 263.813 389.867 264.011 389.308 264.409C388.749 264.807 388.394 265.356 388.243 266.057L381.836 265.83C382.026 264.504 382.513 263.32 383.299 262.278C384.095 261.227 385.184 260.403 386.566 259.807C387.958 259.201 389.63 258.898 391.581 258.898C392.973 258.898 394.256 259.063 395.43 259.395C396.604 259.717 397.627 260.19 398.498 260.815C399.369 261.431 400.042 262.188 400.515 263.088C400.998 263.988 401.24 265.015 401.24 266.17L401.24 281L394.706 281L394.706 277.96L394.535 277.96C394.147 278.699 393.65 279.324 393.044 279.835C392.447 280.347 391.742 280.73 390.927 280.986C390.122 281.241 389.213 281.369 388.2 281.369ZM390.345 276.824C391.093 276.824 391.765 276.672 392.362 276.369C392.968 276.066 393.451 275.65 393.811 275.119C394.171 274.58 394.35 273.955 394.35 273.244L394.35 271.17C394.152 271.275 393.91 271.369 393.626 271.455C393.351 271.54 393.048 271.62 392.717 271.696C392.386 271.772 392.045 271.838 391.694 271.895C391.344 271.952 391.008 272.004 390.686 272.051C390.032 272.155 389.474 272.316 389.01 272.534C388.555 272.752 388.205 273.036 387.958 273.386C387.722 273.727 387.603 274.134 387.603 274.608C387.603 275.328 387.859 275.877 388.37 276.256C388.891 276.634 389.549 276.824 390.345 276.824ZM405.487 281L405.487 259.182L412.234 259.182L412.234 263.159L412.461 263.159C412.859 261.72 413.508 260.65 414.407 259.949C415.307 259.239 416.353 258.884 417.547 258.884C417.868 258.884 418.2 258.907 418.541 258.955C418.882 258.992 419.199 259.054 419.493 259.139L419.493 265.176C419.161 265.063 418.725 264.973 418.186 264.906C417.655 264.84 417.182 264.807 416.765 264.807C415.941 264.807 415.198 264.991 414.535 265.361C413.882 265.721 413.366 266.227 412.987 266.881C412.618 267.525 412.433 268.282 412.433 269.153L412.433 281L405.487 281ZM431.375 281.412C429.074 281.412 427.099 280.938 425.451 279.991C423.813 279.045 422.554 277.728 421.673 276.043C420.792 274.348 420.352 272.387 420.352 270.162C420.352 267.927 420.792 265.967 421.673 264.281C422.563 262.586 423.827 261.265 425.466 260.318C427.113 259.371 429.078 258.898 431.36 258.898C433.377 258.898 435.134 259.262 436.63 259.991C438.136 260.721 439.31 261.753 440.153 263.088C441.005 264.414 441.455 265.972 441.502 267.761L435.011 267.761C434.878 266.644 434.5 265.768 433.875 265.134C433.259 264.499 432.454 264.182 431.46 264.182C430.655 264.182 429.949 264.409 429.343 264.864C428.737 265.309 428.264 265.972 427.923 266.852C427.592 267.723 427.426 268.803 427.426 270.091C427.426 271.379 427.592 272.468 427.923 273.358C428.264 274.239 428.737 274.906 429.343 275.361C429.949 275.806 430.655 276.028 431.46 276.028C432.104 276.028 432.672 275.891 433.164 275.616C433.666 275.342 434.078 274.939 434.4 274.409C434.722 273.869 434.926 273.216 435.011 272.449L441.502 272.449C441.436 274.248 440.986 275.82 440.153 277.165C439.329 278.509 438.169 279.556 436.673 280.304C435.186 281.043 433.42 281.412 431.375 281.412ZM452.003 268.557L452.003 281L445.057 281L445.057 251.909L451.776 251.909L451.776 263.188L452.017 263.188C452.51 261.843 453.315 260.792 454.432 260.034C455.559 259.277 456.937 258.898 458.566 258.898C460.1 258.898 461.435 259.239 462.571 259.92C463.708 260.593 464.588 261.545 465.213 262.776C465.848 264.007 466.16 265.446 466.151 267.094L466.151 281L459.205 281L459.205 268.457C459.214 267.245 458.911 266.298 458.296 265.616C457.68 264.935 456.814 264.594 455.696 264.594C454.967 264.594 454.323 264.755 453.765 265.077C453.215 265.389 452.784 265.839 452.472 266.426C452.169 267.013 452.013 267.723 452.003 268.557ZM188.947 329L181.391 329L191.206 299.909L200.567 299.909L210.382 329L202.825 329L195.993 307.239L195.766 307.239L188.947 329ZM187.939 317.551L203.734 317.551L203.734 322.892L187.939 322.892L187.939 317.551ZM231.898 313.844L225.521 314.014C225.454 313.56 225.274 313.157 224.981 312.807C224.687 312.447 224.304 312.168 223.83 311.969C223.366 311.76 222.826 311.656 222.211 311.656C221.406 311.656 220.719 311.817 220.151 312.139C219.593 312.461 219.318 312.897 219.327 313.446C219.318 313.872 219.488 314.241 219.839 314.554C220.199 314.866 220.838 315.117 221.756 315.307L225.961 316.102C228.139 316.519 229.758 317.21 230.819 318.176C231.889 319.142 232.429 320.42 232.438 322.011C232.429 323.508 231.984 324.81 231.103 325.918C230.232 327.026 229.039 327.887 227.523 328.503C226.008 329.109 224.275 329.412 222.325 329.412C219.209 329.412 216.752 328.773 214.952 327.494C213.163 326.206 212.14 324.483 211.884 322.324L218.745 322.153C218.897 322.949 219.29 323.555 219.924 323.972C220.558 324.388 221.368 324.597 222.353 324.597C223.243 324.597 223.968 324.431 224.526 324.099C225.085 323.768 225.369 323.328 225.379 322.778C225.369 322.286 225.151 321.893 224.725 321.599C224.299 321.296 223.631 321.06 222.722 320.889L218.915 320.165C216.728 319.767 215.099 319.033 214.029 317.963C212.959 316.884 212.429 315.51 212.438 313.844C212.429 312.385 212.817 311.14 213.603 310.108C214.389 309.066 215.506 308.271 216.955 307.722C218.404 307.172 220.113 306.898 222.083 306.898C225.038 306.898 227.367 307.518 229.072 308.759C230.776 309.99 231.719 311.685 231.898 313.844ZM254.906 313.844L248.528 314.014C248.462 313.56 248.282 313.157 247.989 312.807C247.695 312.447 247.312 312.168 246.838 311.969C246.374 311.76 245.834 311.656 245.219 311.656C244.414 311.656 243.727 311.817 243.159 312.139C242.6 312.461 242.326 312.897 242.335 313.446C242.326 313.872 242.496 314.241 242.847 314.554C243.206 314.866 243.846 315.117 244.764 315.307L248.969 316.102C251.147 316.519 252.766 317.21 253.827 318.176C254.897 319.142 255.437 320.42 255.446 322.011C255.437 323.508 254.991 324.81 254.111 325.918C253.24 327.026 252.046 327.887 250.531 328.503C249.016 329.109 247.283 329.412 245.332 329.412C242.217 329.412 239.759 328.773 237.96 327.494C236.17 326.206 235.148 324.483 234.892 322.324L241.753 322.153C241.904 322.949 242.297 323.555 242.932 323.972C243.566 324.388 244.376 324.597 245.361 324.597C246.251 324.597 246.975 324.431 247.534 324.099C248.093 323.768 248.377 323.328 248.386 322.778C248.377 322.286 248.159 321.893 247.733 321.599C247.307 321.296 246.639 321.06 245.73 320.889L241.923 320.165C239.736 319.767 238.107 319.033 237.037 317.963C235.967 316.884 235.437 315.51 235.446 313.844C235.437 312.385 235.825 311.14 236.611 310.108C237.397 309.066 238.514 308.271 239.963 307.722C241.412 307.172 243.121 306.898 245.091 306.898C248.045 306.898 250.375 307.518 252.08 308.759C253.784 309.99 254.726 311.685 254.906 313.844ZM258.866 329L258.866 307.182L265.812 307.182L265.812 329L258.866 329ZM262.346 304.639C261.371 304.639 260.532 304.317 259.832 303.673C259.131 303.02 258.781 302.234 258.781 301.315C258.781 300.406 259.131 299.63 259.832 298.986C260.532 298.332 261.371 298.006 262.346 298.006C263.331 298.006 264.169 298.332 264.86 298.986C265.561 299.63 265.911 300.406 265.911 301.315C265.911 302.234 265.561 303.02 264.86 303.673C264.169 304.317 263.331 304.639 262.346 304.639ZM289.281 313.844L282.903 314.014C282.837 313.56 282.657 313.157 282.364 312.807C282.07 312.447 281.687 312.168 281.213 311.969C280.749 311.76 280.209 311.656 279.594 311.656C278.789 311.656 278.102 311.817 277.534 312.139C276.975 312.461 276.701 312.897 276.71 313.446C276.701 313.872 276.871 314.241 277.222 314.554C277.581 314.866 278.221 315.117 279.139 315.307L283.344 316.102C285.522 316.519 287.141 317.21 288.202 318.176C289.272 319.142 289.812 320.42 289.821 322.011C289.812 323.508 289.366 324.81 288.486 325.918C287.615 327.026 286.421 327.887 284.906 328.503C283.391 329.109 281.658 329.412 279.707 329.412C276.592 329.412 274.134 328.773 272.335 327.494C270.545 326.206 269.523 324.483 269.267 322.324L276.128 322.153C276.279 322.949 276.672 323.555 277.307 323.972C277.941 324.388 278.751 324.597 279.736 324.597C280.626 324.597 281.35 324.431 281.909 324.099C282.468 323.768 282.752 323.328 282.761 322.778C282.752 322.286 282.534 321.893 282.108 321.599C281.682 321.296 281.014 321.06 280.105 320.889L276.298 320.165C274.111 319.767 272.482 319.033 271.412 317.963C270.342 316.884 269.812 315.51 269.821 313.844C269.812 312.385 270.2 311.14 270.986 310.108C271.772 309.066 272.889 308.271 274.338 307.722C275.787 307.172 277.496 306.898 279.466 306.898C282.42 306.898 284.75 307.518 286.455 308.759C288.159 309.99 289.101 311.685 289.281 313.844ZM305.556 307.182L305.556 312.295L291.792 312.295L291.792 307.182L305.556 307.182ZM294.675 301.955L301.621 301.955L301.621 322.139C301.621 322.565 301.688 322.911 301.82 323.176C301.962 323.432 302.166 323.616 302.431 323.73C302.696 323.834 303.013 323.886 303.383 323.886C303.648 323.886 303.927 323.863 304.221 323.815C304.524 323.759 304.751 323.711 304.903 323.673L305.954 328.688C305.622 328.782 305.154 328.901 304.548 329.043C303.951 329.185 303.236 329.275 302.403 329.313C300.774 329.388 299.377 329.199 298.212 328.744C297.057 328.28 296.172 327.561 295.556 326.585C294.95 325.61 294.656 324.384 294.675 322.906L294.675 301.955ZM315.251 329.369C313.859 329.369 312.623 329.137 311.543 328.673C310.473 328.2 309.626 327.49 309.001 326.543C308.385 325.586 308.077 324.388 308.077 322.949C308.077 321.737 308.29 320.714 308.717 319.881C309.143 319.047 309.73 318.37 310.478 317.849C311.226 317.329 312.088 316.936 313.063 316.67C314.039 316.396 315.08 316.211 316.188 316.116C317.429 316.003 318.428 315.884 319.185 315.761C319.943 315.629 320.492 315.444 320.833 315.207C321.183 314.961 321.359 314.616 321.359 314.17L321.359 314.099C321.359 313.37 321.108 312.807 320.606 312.409C320.104 312.011 319.427 311.813 318.575 311.813C317.656 311.813 316.917 312.011 316.359 312.409C315.8 312.807 315.445 313.356 315.293 314.057L308.887 313.83C309.076 312.504 309.564 311.32 310.35 310.278C311.146 309.227 312.235 308.403 313.617 307.807C315.009 307.201 316.681 306.898 318.631 306.898C320.023 306.898 321.307 307.063 322.481 307.395C323.655 307.717 324.678 308.19 325.549 308.815C326.42 309.431 327.093 310.188 327.566 311.088C328.049 311.988 328.29 313.015 328.29 314.17L328.29 329L321.756 329L321.756 325.96L321.586 325.96C321.198 326.699 320.701 327.324 320.094 327.835C319.498 328.347 318.792 328.73 317.978 328.986C317.173 329.241 316.264 329.369 315.251 329.369ZM317.396 324.824C318.144 324.824 318.816 324.672 319.413 324.369C320.019 324.066 320.502 323.65 320.862 323.119C321.221 322.58 321.401 321.955 321.401 321.244L321.401 319.17C321.202 319.275 320.961 319.369 320.677 319.455C320.402 319.54 320.099 319.62 319.768 319.696C319.436 319.772 319.095 319.838 318.745 319.895C318.395 319.952 318.058 320.004 317.737 320.051C317.083 320.155 316.524 320.316 316.06 320.534C315.606 320.752 315.255 321.036 315.009 321.386C314.772 321.727 314.654 322.134 314.654 322.608C314.654 323.328 314.91 323.877 315.421 324.256C315.942 324.634 316.6 324.824 317.396 324.824ZM339.484 316.557L339.484 329L332.538 329L332.538 307.182L339.143 307.182L339.143 311.188L339.384 311.188C339.867 309.852 340.691 308.806 341.856 308.048C343.021 307.281 344.408 306.898 346.018 306.898C347.552 306.898 348.882 307.243 350.009 307.935C351.146 308.616 352.026 309.573 352.651 310.804C353.286 312.026 353.598 313.455 353.589 315.094L353.589 329L346.643 329L346.643 316.457C346.652 315.245 346.344 314.298 345.719 313.616C345.104 312.935 344.247 312.594 343.148 312.594C342.419 312.594 341.775 312.755 341.217 313.077C340.667 313.389 340.241 313.839 339.938 314.426C339.645 315.013 339.493 315.723 339.484 316.557ZM370.205 307.182L370.205 312.295L356.44 312.295L356.44 307.182L370.205 307.182ZM359.324 301.955L366.27 301.955L366.27 322.139C366.27 322.565 366.336 322.911 366.469 323.176C366.611 323.432 366.814 323.616 367.08 323.73C367.345 323.834 367.662 323.886 368.031 323.886C368.296 323.886 368.576 323.863 368.869 323.815C369.172 323.759 369.4 323.711 369.551 323.673L370.602 328.688C370.271 328.782 369.802 328.901 369.196 329.043C368.599 329.185 367.884 329.275 367.051 329.313C365.422 329.388 364.026 329.199 362.861 328.744C361.705 328.28 360.82 327.561 360.205 326.585C359.598 325.61 359.305 324.384 359.324 322.906L359.324 301.955Z" fill="white"/>
</svg>
