<svg width="552" height="556" viewBox="0 0 552 556" fill="none" xmlns="http://www.w3.org/2000/svg">
<path fill-rule="evenodd" clip-rule="evenodd" d="M46.6656 100.999C-15.5245 200.049 -5.58654 400.605 116.04 483.279C230.278 560.931 310.369 527.439 471.261 430.041C486.596 420.758 500.001 408.44 511.251 393.884C498.386 414.196 481.842 431.177 462.1 443.128C301.207 540.526 221.117 574.018 106.878 496.366C-16.5744 412.451 -24.9596 207.088 40.3534 109.694C42.3511 106.716 44.4567 103.817 46.6656 100.999ZM46.6656 100.999C47.5993 99.5119 48.5492 98.0477 49.5152 96.6072C114.828 -0.786163 295.482 -12.2014 429.506 60.7076C568.543 136.343 579.215 305.952 511.251 393.884C568.747 303.112 552.765 145.832 420.344 73.7949C290.419 3.11598 116.674 11.6817 46.6656 100.999Z" fill="#253B80"/>
<path d="M304.024 528.133C142.965 572.101 21.2795 437.564 11.3864 296.489C1.49345 155.413 100.484 20.6897 244.371 21.0324C447.067 21.515 548.676 211.495 533.695 310.673C501.286 525.243 442.663 490.285 304.024 528.133Z" fill="black"/>
<path fill-rule="evenodd" clip-rule="evenodd" d="M281.84 516.261C425.491 516.261 583.709 338.909 512.843 244.757C483.84 206.225 470.269 173.351 458.474 144.782C436.74 92.1333 421.038 54.0982 325.915 22.1876C186.791 -24.4837 11.5328 125.965 28.8155 286.904C35.0562 345.018 53.766 376.992 84.946 419.455C90.002 426.34 94.5319 434.201 99.1043 442.136C107.63 456.93 116.303 471.981 128.809 481.444C165.933 509.535 228.509 516.261 281.84 516.261ZM295.075 501.751C430.761 501.751 512.803 349.134 512.803 285.744C512.803 264.714 499.319 246.197 486.293 228.31C478.604 217.751 471.074 207.412 466.573 196.905C431.767 115.655 378.918 56.2063 278.289 56.2063C142.603 56.2063 40.0643 145.135 40.0643 274.582C40.0643 317.075 50.0689 332.343 65.6978 356.195C76.3706 372.483 89.6663 392.774 104.19 428.471C135.688 505.89 212.552 503.798 271.93 502.183C280.023 501.963 287.791 501.751 295.075 501.751Z" fill="#1A73E8"/>
<path d="M512.804 285.744C512.804 349.134 430.761 501.751 295.075 501.751C234.348 501.751 139.981 516.441 104.19 428.471C68.3992 340.5 40.0647 346.093 40.0647 274.582C40.0647 145.135 142.604 56.2063 278.29 56.2063C378.919 56.2063 431.768 115.655 466.574 196.905C478.699 225.21 512.804 252.299 512.804 285.744Z" fill="#270D9F"/>
<path d="M475.048 213.915C495.044 267.782 473.308 422.523 357.741 463.958C306.018 482.502 230.277 523.802 172.044 459.977C113.811 396.152 91.442 409.557 68.8846 348.789C28.0524 238.79 87.3355 131.909 202.902 90.4751C288.611 59.7461 352.376 94.1249 407.65 152.54C426.906 172.89 464.498 185.494 475.048 213.915Z" fill="black"/>
<path d="M116.92 281L116.92 251.909L123.952 251.909L123.952 275.29L136.054 275.29L136.054 281L116.92 281ZM149.893 281.412C147.611 281.412 145.641 280.962 143.984 280.063C142.336 279.153 141.067 277.861 140.177 276.185C139.296 274.499 138.856 272.496 138.856 270.176C138.856 267.922 139.301 265.953 140.191 264.267C141.081 262.572 142.336 261.256 143.955 260.318C145.575 259.371 147.483 258.898 149.68 258.898C151.233 258.898 152.653 259.139 153.941 259.622C155.229 260.105 156.342 260.82 157.279 261.767C158.217 262.714 158.946 263.884 159.467 265.276C159.987 266.658 160.248 268.244 160.248 270.034L160.248 271.767L141.285 271.767L141.285 267.733L153.785 267.733C153.775 266.994 153.6 266.336 153.259 265.759C152.918 265.181 152.45 264.731 151.853 264.409C151.266 264.078 150.589 263.912 149.822 263.912C149.045 263.912 148.349 264.087 147.734 264.438C147.118 264.778 146.63 265.247 146.271 265.844C145.911 266.431 145.721 267.098 145.702 267.847L145.702 271.952C145.702 272.842 145.878 273.623 146.228 274.295C146.578 274.958 147.076 275.474 147.719 275.844C148.363 276.213 149.13 276.398 150.021 276.398C150.636 276.398 151.195 276.313 151.697 276.142C152.199 275.972 152.629 275.721 152.989 275.389C153.349 275.058 153.619 274.651 153.799 274.168L160.177 274.352C159.912 275.782 159.329 277.027 158.43 278.088C157.54 279.139 156.37 279.958 154.921 280.545C153.472 281.123 151.796 281.412 149.893 281.412ZM173.966 289.636C171.892 289.636 170.116 289.348 168.639 288.77C167.162 288.192 166.002 287.402 165.159 286.398C164.316 285.394 163.81 284.258 163.639 282.989L170.216 282.619C170.339 283.064 170.566 283.453 170.898 283.784C171.239 284.116 171.679 284.371 172.219 284.551C172.768 284.731 173.412 284.821 174.151 284.821C175.315 284.821 176.277 284.537 177.034 283.969C177.801 283.41 178.185 282.43 178.185 281.028L178.185 277.193L177.943 277.193C177.669 277.866 177.252 278.467 176.693 278.997C176.134 279.527 175.438 279.944 174.605 280.247C173.781 280.55 172.834 280.702 171.764 280.702C170.173 280.702 168.715 280.332 167.389 279.594C166.073 278.846 165.017 277.69 164.222 276.128C163.436 274.556 163.043 272.534 163.043 270.063C163.043 267.515 163.45 265.418 164.264 263.77C165.079 262.113 166.144 260.886 167.46 260.091C168.786 259.295 170.211 258.898 171.736 258.898C172.882 258.898 173.862 259.097 174.676 259.494C175.5 259.883 176.177 260.384 176.707 261C177.238 261.616 177.64 262.255 177.915 262.918L178.114 262.918L178.114 259.182L185.031 259.182L185.031 281.085C185.031 282.932 184.567 284.49 183.639 285.759C182.711 287.027 181.414 287.989 179.747 288.642C178.08 289.305 176.153 289.636 173.966 289.636ZM174.179 275.645C175.022 275.645 175.741 275.422 176.338 274.977C176.935 274.532 177.394 273.893 177.716 273.06C178.038 272.226 178.199 271.227 178.199 270.063C178.199 268.879 178.038 267.861 177.716 267.009C177.403 266.147 176.944 265.484 176.338 265.02C175.741 264.556 175.022 264.324 174.179 264.324C173.317 264.324 172.588 264.561 171.991 265.034C171.395 265.508 170.94 266.175 170.628 267.037C170.325 267.889 170.173 268.898 170.173 270.063C170.173 271.227 170.33 272.226 170.642 273.06C170.955 273.893 171.404 274.532 171.991 274.977C172.588 275.422 173.317 275.645 174.179 275.645ZM195.61 281.369C194.218 281.369 192.982 281.137 191.903 280.673C190.833 280.2 189.985 279.49 189.36 278.543C188.745 277.586 188.437 276.388 188.437 274.949C188.437 273.737 188.65 272.714 189.076 271.881C189.502 271.047 190.089 270.37 190.837 269.849C191.585 269.329 192.447 268.936 193.423 268.67C194.398 268.396 195.44 268.211 196.548 268.116C197.788 268.003 198.787 267.884 199.545 267.761C200.302 267.629 200.852 267.444 201.192 267.207C201.543 266.961 201.718 266.616 201.718 266.17L201.718 266.099C201.718 265.37 201.467 264.807 200.965 264.409C200.463 264.011 199.786 263.813 198.934 263.813C198.015 263.813 197.277 264.011 196.718 264.409C196.159 264.807 195.804 265.356 195.653 266.057L189.246 265.83C189.436 264.504 189.924 263.32 190.71 262.278C191.505 261.227 192.594 260.403 193.977 259.807C195.369 259.201 197.04 258.898 198.991 258.898C200.383 258.898 201.666 259.063 202.84 259.395C204.014 259.717 205.037 260.19 205.908 260.815C206.78 261.431 207.452 262.188 207.925 263.088C208.408 263.988 208.65 265.015 208.65 266.17L208.65 281L202.116 281L202.116 277.96L201.945 277.96C201.557 278.699 201.06 279.324 200.454 279.835C199.857 280.347 199.152 280.73 198.337 280.986C197.532 281.241 196.623 281.369 195.61 281.369ZM197.755 276.824C198.503 276.824 199.175 276.672 199.772 276.369C200.378 276.066 200.861 275.65 201.221 275.119C201.581 274.58 201.761 273.955 201.761 273.244L201.761 271.17C201.562 271.275 201.32 271.369 201.036 271.455C200.762 271.54 200.459 271.62 200.127 271.696C199.796 271.772 199.455 271.838 199.104 271.895C198.754 271.952 198.418 272.004 198.096 272.051C197.442 272.155 196.884 272.316 196.42 272.534C195.965 272.752 195.615 273.036 195.369 273.386C195.132 273.727 195.013 274.134 195.013 274.608C195.013 275.328 195.269 275.877 195.781 276.256C196.301 276.634 196.96 276.824 197.755 276.824ZM219.843 251.909L219.843 281L212.897 281L212.897 251.909L219.843 251.909ZM243.611 281L232.858 281L232.858 251.909L243.597 251.909C246.561 251.909 249.113 252.491 251.253 253.656C253.402 254.812 255.06 256.478 256.224 258.656C257.389 260.825 257.972 263.42 257.972 266.44C257.972 269.471 257.389 272.075 256.224 274.253C255.069 276.431 253.417 278.102 251.267 279.267C249.117 280.422 246.565 281 243.611 281ZM239.889 275.006L243.341 275.006C244.97 275.006 246.348 274.731 247.474 274.182C248.611 273.623 249.468 272.719 250.045 271.469C250.633 270.209 250.926 268.533 250.926 266.44C250.926 264.348 250.633 262.681 250.045 261.44C249.458 260.19 248.592 259.291 247.446 258.741C246.31 258.183 244.908 257.903 243.241 257.903L239.889 257.903L239.889 275.006ZM272.261 281.412C269.97 281.412 268 280.943 266.352 280.006C264.714 279.059 263.45 277.742 262.56 276.057C261.679 274.362 261.239 272.397 261.239 270.162C261.239 267.918 261.679 265.953 262.56 264.267C263.45 262.572 264.714 261.256 266.352 260.318C268 259.371 269.97 258.898 272.261 258.898C274.553 258.898 276.518 259.371 278.156 260.318C279.804 261.256 281.068 262.572 281.949 264.267C282.839 265.953 283.284 267.918 283.284 270.162C283.284 272.397 282.839 274.362 281.949 276.057C281.068 277.742 279.804 279.059 278.156 280.006C276.518 280.943 274.553 281.412 272.261 281.412ZM272.304 276.17C273.137 276.17 273.843 275.915 274.42 275.403C274.998 274.892 275.438 274.182 275.741 273.273C276.054 272.364 276.21 271.313 276.21 270.119C276.21 268.907 276.054 267.847 275.741 266.938C275.438 266.028 274.998 265.318 274.42 264.807C273.843 264.295 273.137 264.04 272.304 264.04C271.442 264.04 270.713 264.295 270.116 264.807C269.529 265.318 269.08 266.028 268.767 266.938C268.464 267.847 268.312 268.907 268.312 270.119C268.312 271.313 268.464 272.364 268.767 273.273C269.08 274.182 269.529 274.892 270.116 275.403C270.713 275.915 271.442 276.17 272.304 276.17ZM297.027 281.412C294.726 281.412 292.751 280.938 291.104 279.991C289.465 279.045 288.206 277.728 287.325 276.043C286.445 274.348 286.004 272.387 286.004 270.162C286.004 267.927 286.445 265.967 287.325 264.281C288.215 262.586 289.48 261.265 291.118 260.318C292.766 259.371 294.731 258.898 297.013 258.898C299.03 258.898 300.786 259.262 302.283 259.991C303.788 260.721 304.963 261.753 305.805 263.088C306.658 264.414 307.107 265.972 307.155 267.761L300.663 267.761C300.531 266.644 300.152 265.768 299.527 265.134C298.911 264.499 298.107 264.182 297.112 264.182C296.307 264.182 295.602 264.409 294.996 264.864C294.39 265.309 293.916 265.972 293.575 266.852C293.244 267.723 293.078 268.803 293.078 270.091C293.078 271.379 293.244 272.468 293.575 273.358C293.916 274.239 294.39 274.906 294.996 275.361C295.602 275.806 296.307 276.028 297.112 276.028C297.756 276.028 298.324 275.891 298.817 275.616C299.319 275.342 299.731 274.939 300.053 274.409C300.375 273.869 300.578 273.216 300.663 272.449L307.155 272.449C307.089 274.248 306.639 275.82 305.805 277.165C304.982 278.509 303.821 279.556 302.325 280.304C300.839 281.043 299.072 281.412 297.027 281.412ZM324.786 271.582L324.786 259.182L331.718 259.182L331.718 281L325.099 281L325.099 276.938L324.871 276.938C324.388 278.273 323.565 279.333 322.4 280.119C321.245 280.896 319.848 281.284 318.21 281.284C316.723 281.284 315.416 280.943 314.289 280.261C313.162 279.58 312.286 278.628 311.661 277.406C311.036 276.175 310.719 274.736 310.71 273.088L310.71 259.182L317.656 259.182L317.656 271.724C317.665 272.908 317.978 273.841 318.593 274.523C319.209 275.205 320.047 275.545 321.107 275.545C321.799 275.545 322.419 275.394 322.968 275.091C323.527 274.778 323.967 274.329 324.289 273.741C324.621 273.145 324.786 272.425 324.786 271.582ZM336.139 281L336.139 259.182L342.744 259.182L342.744 263.188L342.986 263.188C343.44 261.862 344.207 260.815 345.287 260.048C346.366 259.281 347.654 258.898 349.151 258.898C350.666 258.898 351.963 259.286 353.043 260.063C354.122 260.839 354.809 261.881 355.102 263.188L355.33 263.188C355.737 261.89 356.532 260.853 357.716 260.077C358.9 259.291 360.296 258.898 361.906 258.898C363.971 258.898 365.647 259.561 366.935 260.886C368.223 262.203 368.866 264.011 368.866 266.313L368.866 281L361.92 281L361.92 267.903C361.92 266.814 361.641 265.986 361.082 265.418C360.524 264.84 359.799 264.551 358.909 264.551C357.953 264.551 357.2 264.864 356.651 265.489C356.111 266.104 355.841 266.933 355.841 267.974L355.841 281L349.165 281L349.165 267.832C349.165 266.819 348.89 266.019 348.341 265.432C347.792 264.845 347.067 264.551 346.168 264.551C345.562 264.551 345.027 264.698 344.562 264.991C344.098 265.276 343.734 265.683 343.469 266.213C343.213 266.743 343.085 267.368 343.085 268.088L343.085 281L336.139 281ZM383.369 281.412C381.087 281.412 379.117 280.962 377.46 280.063C375.813 279.153 374.544 277.861 373.653 276.185C372.773 274.499 372.332 272.496 372.332 270.176C372.332 267.922 372.777 265.953 373.668 264.267C374.558 262.572 375.812 261.256 377.432 260.318C379.051 259.371 380.959 258.898 383.156 258.898C384.709 258.898 386.13 259.139 387.418 259.622C388.705 260.105 389.818 260.82 390.756 261.767C391.693 262.714 392.422 263.884 392.943 265.276C393.464 266.658 393.724 268.244 393.724 270.034L393.724 271.767L374.761 271.767L374.761 267.733L387.261 267.733C387.252 266.994 387.077 266.336 386.736 265.759C386.395 265.181 385.926 264.731 385.33 264.409C384.742 264.078 384.065 263.912 383.298 263.912C382.522 263.912 381.826 264.087 381.21 264.438C380.595 264.778 380.107 265.247 379.747 265.844C379.387 266.431 379.198 267.098 379.179 267.847L379.179 271.952C379.179 272.842 379.354 273.623 379.705 274.295C380.055 274.958 380.552 275.474 381.196 275.844C381.84 276.213 382.607 276.398 383.497 276.398C384.113 276.398 384.671 276.313 385.173 276.142C385.675 275.972 386.106 275.721 386.466 275.389C386.826 275.058 387.096 274.651 387.276 274.168L393.653 274.352C393.388 275.782 392.806 277.027 391.906 278.088C391.016 279.139 389.847 279.958 388.398 280.545C386.949 281.123 385.273 281.412 383.369 281.412ZM404.218 268.557L404.218 281L397.272 281L397.272 259.182L403.877 259.182L403.877 263.188L404.119 263.188C404.602 261.852 405.425 260.806 406.59 260.048C407.755 259.281 409.142 258.898 410.752 258.898C412.286 258.898 413.617 259.243 414.744 259.935C415.88 260.616 416.761 261.573 417.386 262.804C418.02 264.026 418.333 265.455 418.323 267.094L418.323 281L411.377 281L411.377 268.457C411.387 267.245 411.079 266.298 410.454 265.616C409.838 264.935 408.981 264.594 407.883 264.594C407.154 264.594 406.51 264.755 405.951 265.077C405.402 265.389 404.976 265.839 404.673 266.426C404.379 267.013 404.228 267.723 404.218 268.557ZM434.939 259.182L434.939 264.295L421.175 264.295L421.175 259.182L434.939 259.182ZM424.058 253.955L431.004 253.955L431.004 274.139C431.004 274.565 431.071 274.911 431.203 275.176C431.345 275.432 431.549 275.616 431.814 275.73C432.079 275.834 432.396 275.886 432.766 275.886C433.031 275.886 433.31 275.863 433.604 275.815C433.907 275.759 434.134 275.711 434.286 275.673L435.337 280.688C435.005 280.782 434.536 280.901 433.93 281.043C433.334 281.185 432.619 281.275 431.786 281.313C430.157 281.388 428.76 281.199 427.595 280.744C426.44 280.28 425.554 279.561 424.939 278.585C424.333 277.61 424.039 276.384 424.058 274.906L424.058 253.955ZM194.776 329L187.219 329L197.034 299.909L206.395 299.909L216.21 329L208.653 329L201.821 307.239L201.594 307.239L194.776 329ZM193.767 317.551L209.562 317.551L209.562 322.892L193.767 322.892L193.767 317.551ZM226.288 316.557L226.288 329L219.342 329L219.342 307.182L225.947 307.182L225.947 311.188L226.189 311.188C226.672 309.852 227.496 308.806 228.661 308.048C229.825 307.281 231.213 306.898 232.822 306.898C234.357 306.898 235.687 307.243 236.814 307.935C237.95 308.616 238.831 309.573 239.456 310.804C240.09 312.026 240.403 313.455 240.393 315.094L240.393 329L233.447 329L233.447 316.457C233.457 315.245 233.149 314.298 232.524 313.616C231.909 312.935 231.052 312.594 229.953 312.594C229.224 312.594 228.58 312.755 228.021 313.077C227.472 313.389 227.046 313.839 226.743 314.426C226.449 315.013 226.298 315.723 226.288 316.557ZM250.844 329.369C249.452 329.369 248.217 329.137 247.137 328.673C246.067 328.2 245.219 327.49 244.594 326.543C243.979 325.586 243.671 324.388 243.671 322.949C243.671 321.737 243.884 320.714 244.31 319.881C244.737 319.047 245.324 318.37 246.072 317.849C246.82 317.329 247.682 316.936 248.657 316.67C249.632 316.396 250.674 316.211 251.782 316.116C253.022 316.003 254.022 315.884 254.779 315.761C255.537 315.629 256.086 315.444 256.427 315.207C256.777 314.961 256.952 314.616 256.952 314.17L256.952 314.099C256.952 313.37 256.701 312.807 256.2 312.409C255.698 312.011 255.021 311.813 254.168 311.813C253.25 311.813 252.511 312.011 251.952 312.409C251.394 312.807 251.039 313.356 250.887 314.057L244.481 313.83C244.67 312.504 245.158 311.32 245.944 310.278C246.739 309.227 247.828 308.403 249.211 307.807C250.603 307.201 252.274 306.898 254.225 306.898C255.617 306.898 256.9 307.063 258.075 307.395C259.249 307.717 260.272 308.19 261.143 308.815C262.014 309.431 262.686 310.188 263.16 311.088C263.643 311.988 263.884 313.015 263.884 314.17L263.884 329L257.35 329L257.35 325.96L257.18 325.96C256.791 326.699 256.294 327.324 255.688 327.835C255.092 328.347 254.386 328.73 253.572 328.986C252.767 329.241 251.858 329.369 250.844 329.369ZM252.989 324.824C253.737 324.824 254.41 324.672 255.006 324.369C255.612 324.066 256.095 323.65 256.455 323.119C256.815 322.58 256.995 321.955 256.995 321.244L256.995 319.17C256.796 319.275 256.555 319.369 256.271 319.455C255.996 319.54 255.693 319.62 255.362 319.696C255.03 319.772 254.689 319.838 254.339 319.895C253.988 319.952 253.652 320.004 253.33 320.051C252.677 320.155 252.118 320.316 251.654 320.534C251.2 320.752 250.849 321.036 250.603 321.386C250.366 321.727 250.248 322.134 250.248 322.608C250.248 323.328 250.504 323.877 251.015 324.256C251.536 324.634 252.194 324.824 252.989 324.824ZM275.077 299.909L275.077 329L268.131 329L268.131 299.909L275.077 299.909ZM283.746 337.182C282.912 337.182 282.126 337.116 281.388 336.983C280.649 336.86 280.015 336.694 279.484 336.486L281.018 331.443C281.7 331.67 282.316 331.803 282.865 331.841C283.424 331.879 283.902 331.789 284.3 331.571C284.707 331.363 285.019 330.989 285.237 330.449L285.507 329.795L277.751 307.182L285.024 307.182L289.044 322.75L289.271 322.75L293.348 307.182L300.663 307.182L292.439 331.088C292.041 332.281 291.478 333.332 290.749 334.241C290.029 335.16 289.096 335.88 287.95 336.401C286.814 336.921 285.412 337.182 283.746 337.182ZM303.384 329L303.384 325.037L313.497 312.722L313.497 312.58L303.739 312.58L303.739 307.182L321.778 307.182L321.778 311.528L312.403 323.46L312.403 323.602L322.119 323.602L322.119 329L303.384 329ZM336.182 329.412C333.9 329.412 331.93 328.962 330.273 328.063C328.625 327.153 327.356 325.861 326.466 324.185C325.585 322.499 325.145 320.496 325.145 318.176C325.145 315.922 325.59 313.953 326.48 312.267C327.37 310.572 328.625 309.256 330.244 308.318C331.864 307.371 333.772 306.898 335.969 306.898C337.522 306.898 338.942 307.139 340.23 307.622C341.518 308.105 342.631 308.82 343.568 309.767C344.506 310.714 345.235 311.884 345.756 313.276C346.277 314.658 346.537 316.244 346.537 318.034L346.537 319.767L327.574 319.767L327.574 315.733L340.074 315.733C340.064 314.994 339.889 314.336 339.548 313.759C339.207 313.181 338.739 312.731 338.142 312.409C337.555 312.078 336.878 311.912 336.111 311.912C335.334 311.912 334.638 312.087 334.023 312.438C333.407 312.778 332.92 313.247 332.56 313.844C332.2 314.431 332.01 315.098 331.991 315.847L331.991 319.952C331.991 320.842 332.167 321.623 332.517 322.295C332.867 322.958 333.365 323.474 334.009 323.844C334.652 324.213 335.42 324.398 336.31 324.398C336.925 324.398 337.484 324.313 337.986 324.142C338.488 323.972 338.919 323.721 339.278 323.389C339.638 323.058 339.908 322.651 340.088 322.168L346.466 322.352C346.201 323.782 345.618 325.027 344.719 326.088C343.829 327.139 342.659 327.958 341.21 328.545C339.761 329.123 338.085 329.412 336.182 329.412ZM350.085 329L350.085 307.182L356.832 307.182L356.832 311.159L357.059 311.159C357.457 309.72 358.105 308.65 359.005 307.949C359.905 307.239 360.951 306.884 362.144 306.884C362.466 306.884 362.798 306.907 363.138 306.955C363.479 306.992 363.797 307.054 364.09 307.139L364.09 313.176C363.759 313.063 363.323 312.973 362.783 312.906C362.253 312.84 361.78 312.807 361.363 312.807C360.539 312.807 359.796 312.991 359.133 313.361C358.479 313.721 357.963 314.227 357.585 314.881C357.215 315.525 357.031 316.282 357.031 317.153L357.031 329L350.085 329Z" fill="white"/>
</svg>
