<svg width="1480" height="949" viewBox="0 0 1480 949" fill="none" xmlns="http://www.w3.org/2000/svg">
<g filter="url(#filter0_d_502_3)">
<rect x="198" y="125" width="1124" height="544" rx="30" fill="black"/>
</g>
<path d="M377.136 464H356.045L388.182 370.909H413.545L445.636 464H424.545L401.227 392.182H400.5L377.136 464ZM375.818 427.409H425.636V442.773H375.818V427.409ZM456.852 464V394.182H476.216V464H456.852ZM466.58 385.182C463.701 385.182 461.231 384.227 459.17 382.318C457.14 380.379 456.125 378.061 456.125 375.364C456.125 372.697 457.14 370.409 459.17 368.5C461.231 366.561 463.701 365.591 466.58 365.591C469.458 365.591 471.913 366.561 473.943 368.5C476.004 370.409 477.034 372.697 477.034 375.364C477.034 378.061 476.004 380.379 473.943 382.318C471.913 384.227 469.458 385.182 466.58 385.182ZM535.227 418.091V433.455H492.773V418.091H535.227ZM552.091 464V370.909H571.773V447.773H611.682V464H552.091ZM644.261 465.318C639.807 465.318 635.837 464.545 632.352 463C628.867 461.424 626.11 459.106 624.08 456.045C622.08 452.955 621.08 449.106 621.08 444.5C621.08 440.621 621.792 437.364 623.216 434.727C624.64 432.091 626.58 429.97 629.034 428.364C631.489 426.758 634.277 425.545 637.398 424.727C640.549 423.909 643.852 423.333 647.307 423C651.367 422.576 654.64 422.182 657.125 421.818C659.61 421.424 661.413 420.848 662.534 420.091C663.655 419.333 664.216 418.212 664.216 416.727V416.455C664.216 413.576 663.307 411.348 661.489 409.773C659.701 408.197 657.155 407.409 653.852 407.409C650.367 407.409 647.595 408.182 645.534 409.727C643.473 411.242 642.11 413.152 641.443 415.455L623.534 414C624.443 409.758 626.231 406.091 628.898 403C631.564 399.879 635.004 397.485 639.216 395.818C643.458 394.121 648.367 393.273 653.943 393.273C657.822 393.273 661.534 393.727 665.08 394.636C668.655 395.545 671.822 396.955 674.58 398.864C677.367 400.773 679.564 403.227 681.17 406.227C682.777 409.197 683.58 412.758 683.58 416.909V464H665.216V454.318H664.67C663.549 456.5 662.049 458.424 660.17 460.091C658.292 461.727 656.034 463.015 653.398 463.955C650.761 464.864 647.716 465.318 644.261 465.318ZM649.807 451.955C652.655 451.955 655.17 451.394 657.352 450.273C659.534 449.121 661.246 447.576 662.489 445.636C663.731 443.697 664.352 441.5 664.352 439.045V431.636C663.746 432.03 662.913 432.394 661.852 432.727C660.822 433.03 659.655 433.318 658.352 433.591C657.049 433.833 655.746 434.061 654.443 434.273C653.14 434.455 651.958 434.621 650.898 434.773C648.625 435.106 646.64 435.636 644.943 436.364C643.246 437.091 641.928 438.076 640.989 439.318C640.049 440.53 639.58 442.045 639.58 443.864C639.58 446.5 640.534 448.515 642.443 449.909C644.383 451.273 646.837 451.955 649.807 451.955ZM712.375 464L693.375 394.182H712.966L723.784 441.091H724.42L735.693 394.182H754.92L766.375 440.818H766.966L777.602 394.182H797.148L778.193 464H757.693L745.693 420.091H744.83L732.83 464H712.375ZM837.545 465.364C830.364 465.364 824.182 463.909 819 461C813.848 458.061 809.879 453.909 807.091 448.545C804.303 443.152 802.909 436.773 802.909 429.409C802.909 422.227 804.303 415.924 807.091 410.5C809.879 405.076 813.803 400.848 818.864 397.818C823.955 394.788 829.924 393.273 836.773 393.273C841.379 393.273 845.667 394.015 849.636 395.5C853.636 396.955 857.121 399.152 860.091 402.091C863.091 405.03 865.424 408.727 867.091 413.182C868.758 417.606 869.591 422.788 869.591 428.727V434.045H810.636V422.045H851.364C851.364 419.258 850.758 416.788 849.545 414.636C848.333 412.485 846.652 410.803 844.5 409.591C842.379 408.348 839.909 407.727 837.091 407.727C834.152 407.727 831.545 408.409 829.273 409.773C827.03 411.106 825.273 412.909 824 415.182C822.727 417.424 822.076 419.924 822.045 422.682V434.091C822.045 437.545 822.682 440.53 823.955 443.045C825.258 445.561 827.091 447.5 829.455 448.864C831.818 450.227 834.621 450.909 837.864 450.909C840.015 450.909 841.985 450.606 843.773 450C845.561 449.394 847.091 448.485 848.364 447.273C849.636 446.061 850.606 444.576 851.273 442.818L869.182 444C868.273 448.303 866.409 452.061 863.591 455.273C860.803 458.455 857.197 460.939 852.773 462.727C848.379 464.485 843.303 465.364 837.545 465.364ZM882.227 464V394.182H901V406.364H901.727C903 402.03 905.136 398.758 908.136 396.545C911.136 394.303 914.591 393.182 918.5 393.182C919.47 393.182 920.515 393.242 921.636 393.364C922.758 393.485 923.742 393.652 924.591 393.864V411.045C923.682 410.773 922.424 410.53 920.818 410.318C919.212 410.106 917.742 410 916.409 410C913.561 410 911.015 410.621 908.773 411.864C906.561 413.076 904.803 414.773 903.5 416.955C902.227 419.136 901.591 421.652 901.591 424.5V464H882.227ZM937.92 465.182C934.92 465.182 932.345 464.121 930.193 462C928.072 459.848 927.011 457.273 927.011 454.273C927.011 451.303 928.072 448.758 930.193 446.636C932.345 444.515 934.92 443.455 937.92 443.455C940.83 443.455 943.375 444.515 945.557 446.636C947.739 448.758 948.83 451.303 948.83 454.273C948.83 456.273 948.314 458.106 947.284 459.773C946.284 461.409 944.966 462.727 943.33 463.727C941.693 464.697 939.89 465.182 937.92 465.182ZM984.636 465.318C980.182 465.318 976.212 464.545 972.727 463C969.242 461.424 966.485 459.106 964.455 456.045C962.455 452.955 961.455 449.106 961.455 444.5C961.455 440.621 962.167 437.364 963.591 434.727C965.015 432.091 966.955 429.97 969.409 428.364C971.864 426.758 974.652 425.545 977.773 424.727C980.924 423.909 984.227 423.333 987.682 423C991.742 422.576 995.015 422.182 997.5 421.818C999.985 421.424 1001.79 420.848 1002.91 420.091C1004.03 419.333 1004.59 418.212 1004.59 416.727V416.455C1004.59 413.576 1003.68 411.348 1001.86 409.773C1000.08 408.197 997.53 407.409 994.227 407.409C990.742 407.409 987.97 408.182 985.909 409.727C983.848 411.242 982.485 413.152 981.818 415.455L963.909 414C964.818 409.758 966.606 406.091 969.273 403C971.939 399.879 975.379 397.485 979.591 395.818C983.833 394.121 988.742 393.273 994.318 393.273C998.197 393.273 1001.91 393.727 1005.45 394.636C1009.03 395.545 1012.2 396.955 1014.95 398.864C1017.74 400.773 1019.94 403.227 1021.55 406.227C1023.15 409.197 1023.95 412.758 1023.95 416.909V464H1005.59V454.318H1005.05C1003.92 456.5 1002.42 458.424 1000.55 460.091C998.667 461.727 996.409 463.015 993.773 463.955C991.136 464.864 988.091 465.318 984.636 465.318ZM990.182 451.955C993.03 451.955 995.545 451.394 997.727 450.273C999.909 449.121 1001.62 447.576 1002.86 445.636C1004.11 443.697 1004.73 441.5 1004.73 439.045V431.636C1004.12 432.03 1003.29 432.394 1002.23 432.727C1001.2 433.03 1000.03 433.318 998.727 433.591C997.424 433.833 996.121 434.061 994.818 434.273C993.515 434.455 992.333 434.621 991.273 434.773C989 435.106 987.015 435.636 985.318 436.364C983.621 437.091 982.303 438.076 981.364 439.318C980.424 440.53 979.955 442.045 979.955 443.864C979.955 446.5 980.909 448.515 982.818 449.909C984.758 451.273 987.212 451.955 990.182 451.955ZM1038.98 490.182V394.182H1058.07V405.909H1058.93C1059.78 404.03 1061.01 402.121 1062.61 400.182C1064.25 398.212 1066.37 396.576 1068.98 395.273C1071.61 393.939 1074.89 393.273 1078.8 393.273C1083.89 393.273 1088.58 394.606 1092.89 397.273C1097.19 399.909 1100.63 403.894 1103.2 409.227C1105.78 414.53 1107.07 421.182 1107.07 429.182C1107.07 436.97 1105.81 443.545 1103.3 448.909C1100.81 454.242 1097.42 458.288 1093.11 461.045C1088.84 463.773 1084.05 465.136 1078.75 465.136C1074.99 465.136 1071.8 464.515 1069.16 463.273C1066.55 462.03 1064.42 460.47 1062.75 458.591C1061.08 456.682 1059.81 454.758 1058.93 452.818H1058.34V490.182H1038.98ZM1057.93 429.091C1057.93 433.242 1058.51 436.864 1059.66 439.955C1060.81 443.045 1062.48 445.455 1064.66 447.182C1066.84 448.879 1069.49 449.727 1072.61 449.727C1075.77 449.727 1078.43 448.864 1080.61 447.136C1082.8 445.379 1084.45 442.955 1085.57 439.864C1086.72 436.742 1087.3 433.152 1087.3 429.091C1087.3 425.061 1086.73 421.515 1085.61 418.455C1084.49 415.394 1082.84 413 1080.66 411.273C1078.48 409.545 1075.8 408.682 1072.61 408.682C1069.46 408.682 1066.8 409.515 1064.61 411.182C1062.46 412.848 1060.81 415.212 1059.66 418.273C1058.51 421.333 1057.93 424.939 1057.93 429.091ZM1119.98 490.182V394.182H1139.07V405.909H1139.93C1140.78 404.03 1142.01 402.121 1143.61 400.182C1145.25 398.212 1147.37 396.576 1149.98 395.273C1152.61 393.939 1155.89 393.273 1159.8 393.273C1164.89 393.273 1169.58 394.606 1173.89 397.273C1178.19 399.909 1181.63 403.894 1184.2 409.227C1186.78 414.53 1188.07 421.182 1188.07 429.182C1188.07 436.97 1186.81 443.545 1184.3 448.909C1181.81 454.242 1178.42 458.288 1174.11 461.045C1169.84 463.773 1165.05 465.136 1159.75 465.136C1155.99 465.136 1152.8 464.515 1150.16 463.273C1147.55 462.03 1145.42 460.47 1143.75 458.591C1142.08 456.682 1140.81 454.758 1139.93 452.818H1139.34V490.182H1119.98ZM1138.93 429.091C1138.93 433.242 1139.51 436.864 1140.66 439.955C1141.81 443.045 1143.48 445.455 1145.66 447.182C1147.84 448.879 1150.49 449.727 1153.61 449.727C1156.77 449.727 1159.43 448.864 1161.61 447.136C1163.8 445.379 1165.45 442.955 1166.57 439.864C1167.72 436.742 1168.3 433.152 1168.3 429.091C1168.3 425.061 1167.73 421.515 1166.61 418.455C1165.49 415.394 1163.84 413 1161.66 411.273C1159.48 409.545 1156.8 408.682 1153.61 408.682C1150.46 408.682 1147.8 409.515 1145.61 411.182C1143.46 412.848 1141.81 415.212 1140.66 418.273C1139.51 421.333 1138.93 424.939 1138.93 429.091Z" fill="#5B2FFF"/>
<rect x="1327" width="152.467" height="152.467" rx="76.2333" fill="black"/>
<path d="M1396.81 25.7809C1388.42 26.7933 1379.92 30.2568 1372.76 35.5852C1370.63 37.1571 1365.01 42.4056 1364.55 43.2582C1364.29 43.7644 1364.21 43.6311 1370.23 51.6238C1375.72 58.9504 1375.69 58.9237 1376.03 58.3909C1378.35 54.5544 1383.31 50.0253 1388.13 47.3877L1389.43 46.6684L1391.59 48.7997C1395.61 52.7961 1397.72 54.661 1398.01 54.4479C1398.14 54.3147 1403.44 50.5315 1409.73 46.0023C1416.04 41.4998 1422.89 36.571 1424.97 35.079C1427.76 33.1075 1428.67 32.3082 1428.43 32.0951C1427.82 31.6155 1423.85 29.724 1421.35 28.7382C1414.07 25.8608 1405.02 24.7685 1396.81 25.7809ZM1431.15 40.6472C1424.99 45.1498 1420.81 48.4001 1420.79 48.6132C1420.79 48.6932 1421.56 49.3326 1422.49 49.9986C1425.95 52.4763 1429.26 56.2062 1431.71 60.4956L1432.85 62.4671L1431.68 63.6927C1431.04 64.3854 1429.18 66.3303 1427.53 68.0087L1424.54 71.0726L1428.24 76.0014C1442.47 94.864 1447.08 100.885 1447.32 100.965C1447.48 101.018 1448.17 99.9527 1448.83 98.5939C1458.64 78.6922 1454.38 54.9807 1438.23 39.4483C1437.06 38.3027 1436 37.3702 1435.84 37.3702C1435.7 37.3702 1433.57 38.8356 1431.15 40.6472ZM1357.81 53.5154C1351.74 65.8241 1350.76 79.305 1355.02 92.1199C1356.83 97.5815 1359.41 102.457 1363.01 107.226C1364.63 109.384 1370.2 115.165 1370.63 115.165C1370.97 115.139 1385.46 104.135 1385.54 103.842C1385.57 103.683 1384.99 103.15 1384.21 102.644C1382.48 101.471 1378.62 97.6614 1377.21 95.7166C1375.77 93.745 1373.9 90.5746 1373.9 90.0951C1373.9 89.8819 1375.77 87.8571 1378.03 85.5925C1380.3 83.328 1382.16 81.3564 1382.16 81.2499C1382.16 81.1167 1378.91 76.7473 1374.92 71.5255C1360.64 52.7961 1359.23 50.9577 1359.15 50.9577C1359.09 50.9577 1358.51 52.1034 1357.81 53.5154ZM1429.74 95.0505C1427.53 98.4074 1422.68 102.723 1418.84 104.775L1417.11 105.681L1412.69 101.471L1408.27 97.2618L1404.75 99.8727C1402.81 101.338 1395.91 106.48 1389.41 111.355L1377.58 120.201L1380.86 121.799C1393.7 128.007 1407.63 128.726 1420.65 123.904C1426.06 121.906 1430.99 119.108 1435.44 115.512C1437.49 113.86 1442.1 109.224 1442.1 108.824C1442.1 108.478 1431.04 93.5852 1430.8 93.5852C1430.75 93.5852 1430.27 94.2512 1429.74 95.0505Z" fill="white"/>
<g filter="url(#filter1_d_502_3)">
<rect x="1041" y="92" width="152.467" height="152.467" rx="76.2333" fill="#375BD2" shape-rendering="crispEdges"/>
<path d="M1117.88 138.947L1144.28 153.538V182.835L1117.95 197.519L1091.55 182.952V153.654L1117.88 138.947ZM1117.88 117.411L1108.19 122.818L1081.82 137.525L1072.13 142.933V153.701V182.975V193.743L1081.82 199.104L1108.22 213.695L1117.91 219.055L1127.59 213.648L1153.92 198.941L1163.61 193.557V182.789V153.491V142.723L1153.92 137.362L1127.52 122.772L1117.83 117.411H1117.88Z" fill="white"/>
</g>
<g filter="url(#filter2_d_502_3)">
<rect x="1126" y="517" width="152.467" height="152.467" rx="76.2333" fill="black" shape-rendering="crispEdges"/>
<path d="M1163.73 559.982C1164.36 559.188 1165.03 558.426 1165.7 557.661C1165.73 557.624 1165.8 557.617 1165.83 557.58C1165.89 557.506 1165.99 557.458 1166.05 557.384L1166.11 557.31C1166.58 556.877 1167.07 556.408 1167.64 555.998C1169.55 554.515 1171.69 553.342 1173.98 552.523C1181.09 550.032 1188.99 551.57 1195.19 557.424C1203.85 565.537 1203.07 578.614 1196.17 587.304C1187.43 600.255 1172.42 618.329 1193.2 634.518C1196.94 637.43 1199.71 639.829 1211.48 643.229C1203.78 644.649 1196.65 644.209 1188.7 642.18C1183.08 639.005 1174.25 632.215 1171.24 623.041C1166.7 609.133 1179.24 588.339 1185.3 580.333C1193.62 569.245 1180.16 557.251 1170.24 570.645C1165.06 577.624 1156 597.379 1159.15 612.031C1160.99 620.339 1163.44 626.397 1173.18 634.717C1171.34 633.63 1169.58 632.418 1167.92 631.091C1145.3 610.024 1147.93 577.446 1163.73 559.982Z" fill="url(#paint0_linear_502_3)"/>
<path d="M1240.73 626.487C1240.1 627.282 1239.43 628.043 1238.76 628.809C1238.73 628.846 1238.67 628.853 1238.64 628.89C1238.58 628.964 1238.48 629.012 1238.42 629.086L1238.36 629.16C1237.89 629.592 1237.4 630.062 1236.82 630.472C1234.91 631.955 1232.77 633.128 1230.48 633.946C1223.38 636.437 1215.47 634.9 1209.27 629.045C1200.62 620.932 1201.39 607.855 1208.3 599.166C1217.03 586.215 1232.05 568.141 1211.26 551.952C1207.53 549.039 1204.76 546.641 1192.98 543.24C1200.68 541.821 1207.82 542.261 1215.76 544.29C1221.38 547.465 1230.22 554.255 1233.22 563.428C1237.77 577.337 1225.23 598.131 1219.17 606.137C1210.84 617.225 1224.31 629.219 1234.22 615.824C1239.41 608.846 1248.47 589.09 1245.32 574.439C1243.48 566.13 1241.02 560.072 1231.29 551.752C1233.09 552.817 1234.85 554.025 1236.55 555.378C1259.16 576.446 1256.54 609.023 1240.73 626.487Z" fill="url(#paint1_linear_502_3)"/>
</g>
<rect x="89" y="230" width="134" height="134" rx="67" fill="#F9E988"/>
<path d="M211.833 296.754C211.881 307.797 208.654 318.606 202.56 327.815C196.465 337.023 187.777 344.218 177.593 348.489C167.409 352.76 156.188 353.915 145.348 351.808C134.508 349.701 124.536 344.427 116.693 336.653C108.851 328.879 103.489 318.953 101.288 308.132C99.0859 297.311 100.143 286.08 104.324 275.859C108.505 265.639 115.623 256.887 124.778 250.712C133.933 244.537 144.714 241.215 155.757 241.167C170.564 241.103 184.79 246.923 195.307 257.347C205.823 267.772 211.767 281.947 211.833 296.754Z" fill="#8DC63F"/>
<path d="M207.645 296.774C207.692 306.987 204.709 316.984 199.073 325.502C193.437 334.019 185.403 340.674 175.985 344.625C166.567 348.576 156.189 349.646 146.163 347.699C136.137 345.751 126.914 340.875 119.66 333.686C112.406 326.497 107.446 317.318 105.409 307.31C103.371 297.302 104.347 286.915 108.213 277.462C112.079 268.009 118.661 259.914 127.128 254.202C135.594 248.49 145.564 245.417 155.777 245.371C169.471 245.311 182.629 250.692 192.356 260.332C202.082 269.971 207.582 283.08 207.645 296.774Z" fill="#F9E988"/>
<path d="M156.951 248.717C160.233 248.135 163.593 248.135 166.875 248.717C170.19 249.242 173.393 250.315 176.355 251.893C179.3 253.512 181.845 255.709 184.378 257.768C186.911 259.827 189.431 261.935 191.83 264.241C194.279 266.512 196.417 269.096 198.186 271.929C200.009 274.738 201.502 277.748 202.637 280.898C204.793 287.234 205.542 294.06 204.466 300.569H204.146C203.066 294.116 201.601 287.966 199.291 282.116C198.207 279.17 196.931 276.298 195.472 273.519C193.949 270.739 192.272 268.047 190.447 265.455C188.591 262.835 186.316 260.539 183.714 258.658C181.093 256.789 178.078 255.579 175.161 254.43C172.244 253.281 169.351 252.092 166.309 251.218C163.266 250.344 160.175 249.688 156.947 249.053L156.951 248.717Z" fill="white"/>
<path d="M182.192 278.547C178.446 277.463 174.562 275.926 170.629 274.372C170.402 273.385 169.529 272.155 167.761 270.654C165.191 268.424 160.365 268.481 156.193 269.468C151.589 268.384 147.041 268 142.676 269.064C106.971 278.899 127.217 302.895 114.108 327.017C115.973 330.974 136.077 354.06 165.167 347.866C165.167 347.866 155.218 323.958 177.669 312.484C195.879 303.142 209.037 285.858 182.192 278.547Z" fill="#8BC53F"/>
<path d="M186.602 294.249C186.605 294.678 186.48 295.097 186.244 295.454C186.008 295.811 185.672 296.091 185.277 296.257C184.883 296.423 184.448 296.468 184.027 296.387C183.607 296.306 183.22 296.102 182.916 295.801C182.611 295.5 182.403 295.115 182.317 294.696C182.231 294.276 182.272 293.841 182.433 293.444C182.595 293.048 182.871 292.708 183.225 292.469C183.58 292.229 183.998 292.099 184.426 292.097C184.999 292.095 185.551 292.32 185.959 292.724C186.367 293.127 186.598 293.676 186.602 294.249Z" fill="white"/>
<path d="M156.193 269.452C158.795 269.638 168.202 272.689 170.629 274.356C168.606 268.489 161.797 267.708 156.193 269.452Z" fill="#009345"/>
<path d="M158.67 284.288C158.671 286.263 158.086 288.194 156.989 289.837C155.892 291.479 154.333 292.76 152.509 293.516C150.684 294.273 148.676 294.471 146.739 294.086C144.802 293.701 143.022 292.751 141.625 291.354C140.229 289.958 139.277 288.179 138.892 286.242C138.506 284.305 138.703 282.297 139.459 280.472C140.215 278.647 141.495 277.087 143.137 275.99C144.779 274.893 146.71 274.307 148.685 274.307C149.996 274.306 151.294 274.564 152.506 275.066C153.717 275.567 154.818 276.302 155.745 277.229C156.672 278.156 157.408 279.256 157.91 280.468C158.412 281.679 158.67 282.977 158.67 284.288Z" fill="white"/>
<path d="M155.708 284.377C155.708 285.766 155.296 287.124 154.524 288.279C153.753 289.434 152.656 290.334 151.372 290.866C150.089 291.398 148.677 291.537 147.314 291.266C145.952 290.995 144.7 290.326 143.718 289.344C142.736 288.361 142.067 287.11 141.796 285.747C141.525 284.385 141.664 282.973 142.195 281.689C142.727 280.406 143.627 279.309 144.782 278.537C145.937 277.765 147.295 277.353 148.684 277.353C150.547 277.353 152.334 278.093 153.651 279.411C154.968 280.728 155.708 282.514 155.708 284.377Z" fill="#58595B"/>
<path d="M194.69 298.651C186.598 304.352 177.398 308.677 164.346 308.677C158.237 308.677 156.998 302.204 152.961 305.367C150.877 307.01 143.53 310.684 137.7 310.405C131.869 310.125 122.418 306.707 119.784 294.261C118.741 306.707 118.206 315.875 113.533 326.382C122.839 341.283 145.027 352.777 165.167 347.825C163.003 332.714 176.208 317.914 183.649 310.34C186.481 307.471 191.862 302.79 194.69 298.643V298.651Z" fill="#8BC53F"/>
<path d="M194.375 299.024C191.862 301.314 188.872 303.009 185.83 304.506C182.75 305.968 179.54 307.137 176.241 307.998C172.94 308.851 169.496 309.494 166.009 309.179C162.521 308.863 158.957 307.678 156.647 305.064L156.756 304.939C159.588 306.776 162.857 307.423 166.11 307.516C169.407 307.616 172.705 307.345 175.942 306.707C179.211 306.022 182.409 305.034 185.494 303.753C188.581 302.479 191.636 301.002 194.265 298.898L194.375 299.024Z" fill="#58595B"/>
<g filter="url(#filter3_d_502_3)">
<rect x="145" y="633" width="105.467" height="105.467" rx="52.7333" fill="white" shape-rendering="crispEdges"/>
<path fill-rule="evenodd" clip-rule="evenodd" d="M228.934 674.235L226.651 668.156L228.237 664.664C228.441 664.215 228.343 663.687 227.99 663.339L223.674 659.057C221.787 657.186 218.971 656.543 216.435 657.406L215.229 657.816L208.925 650.753H199.653H193.776H185.749L179.526 657.902L178.353 657.497C175.794 656.613 172.944 657.264 171.044 659.164L166.652 663.526C166.371 663.805 166.293 664.224 166.457 664.582L168.114 668.206L165.843 674.282L167.313 679.76L174.01 704.728C174.781 707.607 176.558 710.128 179.029 711.854C179.029 711.854 187.16 717.478 195.184 722.585C195.889 723.034 196.627 723.363 197.419 723.351C198.211 723.361 198.949 723.034 199.653 722.582C208.665 716.79 215.794 711.832 215.794 711.832C218.264 710.102 220.037 707.578 220.805 704.699L227.47 679.721L228.934 674.235Z" fill="url(#paint2_linear_502_3)"/>
<path fill-rule="evenodd" clip-rule="evenodd" d="M221.809 675.441L221.704 675.766L221.538 676.35C221.094 676.892 220.159 677.932 219.459 678.662L213.021 685.372C212.32 686.101 211.925 687.017 212.325 687.939L213.193 690.037C213.592 690.958 213.632 692.482 213.249 693.506C212.86 694.547 212.191 695.468 211.313 696.169L210.642 696.706C209.849 697.34 208.445 697.506 207.521 697.076L204.556 695.696C203.633 695.267 202.256 694.367 201.495 693.697L198.69 691.224C198.142 690.741 198.111 689.912 198.621 689.393L205.453 684.874C206.3 684.313 206.749 683.277 206.267 682.394L203.838 678.061C203.356 677.177 203.164 676.003 203.41 675.451C203.656 674.899 204.64 674.158 205.597 673.803L213.527 670.914C214.484 670.559 214.433 670.193 213.414 670.099L208.347 669.73C207.328 669.636 206.581 669.781 205.597 670.05L201.761 670.981C200.776 671.25 200.568 672.277 200.753 673.261L202.335 681.673C202.521 682.657 202.611 683.649 202.537 683.877C202.463 684.105 201.586 684.472 200.589 684.694L199.277 684.985C198.28 685.207 196.646 685.217 195.646 685.008L194.059 684.677C193.059 684.468 192.18 684.111 192.105 683.884C192.031 683.656 192.12 682.663 192.305 681.679L193.877 673.266C194.062 672.281 193.852 671.256 192.868 670.987L189.031 670.061C188.046 669.792 187.298 669.65 186.28 669.744L181.213 670.118C180.195 670.212 180.144 670.579 181.101 670.932L189.036 673.812C189.992 674.167 190.977 674.907 191.224 675.459C191.471 676.01 191.279 677.184 190.799 678.068L188.375 682.402C187.895 683.286 188.344 684.323 189.192 684.882L196.03 689.394C196.541 689.913 196.51 690.743 195.964 691.226L193.161 693.702C192.402 694.373 191.025 695.274 190.102 695.706L187.139 697.088C186.216 697.519 184.811 697.355 184.019 696.723L183.347 696.187C182.468 695.486 181.797 694.566 181.376 693.442C181.023 692.501 181.061 690.978 181.458 690.056L182.325 687.957C182.723 687.035 182.326 686.12 181.625 685.391L175.179 678.689C174.479 677.96 173.542 676.92 173.098 676.38L172.931 675.796L172.826 675.47C172.816 675.096 172.953 673.901 173.108 673.578C173.264 673.256 173.859 672.313 174.432 671.483L175.811 669.484C176.384 668.655 177.374 667.335 178.011 666.552L180.032 664.069C180.669 663.286 181.213 662.649 181.295 662.654C181.299 662.649 182.123 662.8 183.128 662.988L186.19 663.564C187.194 663.753 188.302 663.96 188.652 664.024C189.001 664.09 190.083 663.89 191.057 663.581L193.259 662.882C194.232 662.573 195.708 662.165 196.539 661.976L197.309 661.988L198.079 661.975C198.91 662.163 200.386 662.569 201.36 662.877L203.564 663.573C204.537 663.881 205.619 664.08 205.968 664.015C206.269 663.959 207.128 663.796 208 663.631L208.43 663.55L211.491 662.972C212.495 662.782 213.32 662.63 213.379 662.635C213.406 662.63 213.949 663.265 214.588 664.049L216.612 666.529C217.251 667.311 218.242 668.629 218.816 669.459L220.198 671.455C220.771 672.284 221.667 673.793 221.723 674.136C221.78 674.479 221.818 675.066 221.809 675.441ZM197.726 695.463C197.816 695.463 198.663 695.776 199.608 696.159L200.485 696.515C201.429 696.898 202.949 697.582 203.861 698.036L206.447 699.322C207.359 699.775 207.424 700.623 206.592 701.206L204.386 702.751C203.554 703.334 202.246 704.346 201.48 705.001C201.27 705.18 201.024 705.391 200.762 705.615C200.065 706.211 199.253 706.905 198.698 707.379C197.934 708.033 196.697 708.036 195.948 707.388C195.198 706.739 193.957 705.677 193.19 705.028C192.423 704.379 191.112 703.375 190.276 702.798L188.078 701.277C187.242 700.699 187.301 699.847 188.208 699.385L190.809 698.058C191.715 697.595 193.23 696.902 194.174 696.519L195.051 696.161C195.995 695.778 196.841 695.463 196.932 695.463H197.329H197.726Z" fill="url(#paint3_linear_502_3)"/>
</g>
<g filter="url(#filter4_d_502_3)">
<rect x="438" y="635" width="152.467" height="152.467" rx="76.2333" fill="#784FFE" shape-rendering="crispEdges"/>
<path fill-rule="evenodd" clip-rule="evenodd" d="M479.003 686.142L543.918 685.822L528.377 709.245L565.055 709.067L549.511 732.097L484.175 732.515L499.962 709.257L463.411 709.243L479.003 686.142Z" fill="white"/>
</g>
<g filter="url(#filter5_d_502_3)">
<rect x="277" y="56" width="102" height="102" rx="51" fill="url(#paint4_linear_502_3)" shape-rendering="crispEdges"/>
<path d="M328.057 118.632C325.417 118.632 322.854 118.853 320.373 119.273L324.193 112.654C328.49 112.366 332.806 112.565 337.058 113.246L322.223 87.5536L297.529 130.328L294 124.216L322.168 75.4209L322.227 75.5224L322.282 75.4249L356.278 134.308H349.215L341.276 120.546C336.987 119.263 332.533 118.618 328.057 118.632ZM358.475 130.431L325.559 73.4248H332.617L362 124.317L358.475 130.431Z" fill="white"/>
<path d="M325.807 101.548L312.293 124.957C317.128 123.497 322.82 122.845 328.193 122.845C331.678 122.849 335.156 123.171 338.583 123.808L343.091 131.617C338.318 129.863 333.275 128.961 328.191 128.951C320.369 128.951 313.185 130.886 306.93 134.251L307.028 134.076L306.894 134.31H299.832L322.276 95.4363L325.807 101.548Z" fill="white"/>
</g>
<rect x="897" y="621" width="96.4666" height="96.4666" rx="48.2333" fill="#F5B300"/>
<path d="M928.286 643.177C930.058 643.66 931.829 643.983 933.6 644.466C935.372 644.949 937.143 645.271 938.914 645.754C939.398 645.915 939.559 645.754 939.72 645.271C940.364 642.533 941.008 639.957 941.652 637.219C941.813 636.736 941.974 636.575 942.457 636.736C944.067 637.219 945.517 637.541 947.127 637.863C947.61 638.024 947.61 638.185 947.449 638.508C946.805 641.084 946.161 643.822 945.517 646.398C945.517 646.559 945.517 646.72 945.356 647.042C946.644 647.364 948.093 647.686 949.381 648.008C949.542 648.008 949.703 647.686 949.864 647.525C950.348 645.432 950.831 643.499 951.475 641.406C951.636 640.762 951.797 640.118 951.958 639.474C951.958 639.152 952.119 638.991 952.441 639.152C954.051 639.635 955.661 639.957 957.433 640.44C957.594 640.44 957.594 640.601 957.755 640.601C957.272 642.694 956.789 644.627 956.306 646.559C956.145 647.364 955.984 648.169 955.661 648.974C955.5 649.458 955.661 649.619 956.145 649.78C957.916 650.585 959.687 651.39 961.459 652.195C963.069 653.161 964.518 654.449 965.645 656.06C967.095 658.475 967.256 661.052 966.611 663.628C966.128 665.399 965.484 667.01 964.196 668.298C963.23 669.264 961.942 669.908 960.653 670.391C960.492 670.391 960.331 670.552 960.009 670.552C960.653 671.035 961.298 671.358 961.942 671.841C963.874 673.29 965.162 675.061 965.806 677.316C966.128 679.087 965.967 681.019 965.484 682.791C964.84 685.045 964.035 686.977 962.586 688.749C960.814 690.842 958.56 691.969 955.984 692.291C952.602 692.774 949.381 692.452 946.161 691.969C945.678 691.808 945.356 691.969 945.195 692.452C944.55 695.029 943.906 697.766 943.262 700.343C943.101 700.987 943.101 701.148 942.296 700.826C940.847 700.504 939.236 700.021 937.787 699.699C937.304 699.538 937.304 699.377 937.465 699.055C938.109 696.317 938.753 693.58 939.559 691.003C939.559 690.681 939.72 690.52 939.398 690.359C938.109 690.037 936.821 689.715 935.372 689.393C935.05 690.842 934.567 692.291 934.245 693.741C933.923 695.19 933.439 696.639 933.117 698.088C932.956 698.41 932.956 698.571 932.473 698.41C930.863 697.927 929.253 697.605 927.642 697.283C927.159 697.122 927.159 696.961 927.32 696.639C927.964 693.902 928.609 691.164 929.414 688.588C929.414 688.427 929.575 688.266 929.575 687.944C925.871 686.977 922.167 686.011 918.303 685.045C918.625 684.401 918.786 683.918 919.108 683.274C919.752 681.824 920.396 680.375 920.879 679.087C921.04 678.604 921.201 678.604 921.684 678.604C922.811 678.926 924.1 679.248 925.227 679.409C926.515 679.731 927.481 679.087 927.642 677.96C929.736 669.747 931.829 661.535 933.761 653.161C934.084 651.873 933.278 650.424 931.829 649.941C930.38 649.458 928.931 649.135 927.642 648.813C927.32 648.813 927.159 648.652 927.32 648.33C927.803 646.559 928.286 644.627 928.77 642.855C928.125 643.338 928.125 643.338 928.286 643.177ZM936.499 682.952C936.66 682.952 936.821 683.113 936.821 683.113C939.398 683.757 942.135 684.562 944.873 684.723C946.805 684.884 948.576 684.884 950.348 684.24C953.407 683.274 954.695 679.248 952.924 676.672C952.119 675.383 950.831 674.578 949.542 673.773C946.644 672.163 943.262 671.519 940.042 670.874C939.559 670.713 939.559 670.874 939.398 671.358C939.075 672.968 938.592 674.417 938.27 676.027C937.626 678.282 937.143 680.536 936.499 682.952ZM950.025 666.527C950.348 666.527 951.153 666.366 951.797 666.205C954.856 665.56 956.467 662.018 954.856 659.28C954.051 657.831 952.602 656.865 951.153 656.221C948.898 655.255 946.644 654.772 944.228 654.127C943.745 653.966 943.584 654.127 943.423 654.61C942.618 657.992 941.813 661.213 940.847 664.594C940.686 664.916 940.847 665.077 941.169 665.238C941.813 665.399 942.296 665.56 942.94 665.722C945.356 666.044 947.449 666.527 950.025 666.527Z" fill="white"/>
<g filter="url(#filter6_d_502_3)">
<rect x="1287" y="244" width="97" height="97" rx="48.5" fill="white" shape-rendering="crispEdges"/>
<path d="M1336.94 258.954C1330.45 258.98 1324.24 261.569 1319.65 266.158C1315.06 270.748 1312.47 276.964 1312.44 283.454C1312.44 286.159 1312.88 288.845 1313.73 291.411C1314.04 292.252 1314.66 292.943 1315.46 293.342C1316.26 293.741 1317.19 293.818 1318.04 293.558C1318.87 293.241 1319.55 292.62 1319.93 291.823C1320.32 291.025 1320.39 290.111 1320.13 289.264C1319.4 287.266 1319.08 285.143 1319.17 283.018C1319.28 279.593 1320.37 276.272 1322.33 273.459C1324.29 270.645 1327.02 268.462 1330.2 267.174C1333.37 265.886 1336.85 265.549 1340.22 266.205C1343.58 266.86 1346.68 268.479 1349.14 270.865C1351.6 273.251 1353.32 276.301 1354.07 279.643C1354.83 282.985 1354.6 286.475 1353.41 289.689C1352.22 292.902 1350.12 295.701 1347.37 297.743C1344.62 299.785 1341.33 300.983 1337.91 301.192C1337.91 301.192 1334.47 301.401 1332.76 301.611C1332.13 301.702 1331.51 301.826 1330.89 301.982C1330.87 302.004 1330.84 302.021 1330.82 302.033C1330.79 302.044 1330.76 302.05 1330.73 302.05C1330.7 302.05 1330.67 302.044 1330.64 302.033C1330.61 302.021 1330.59 302.004 1330.57 301.982C1330.54 301.943 1330.52 301.895 1330.52 301.845C1330.52 301.796 1330.54 301.747 1330.57 301.708L1331.1 298.803L1334.33 284.277C1334.51 283.406 1334.35 282.497 1333.86 281.749C1333.38 281.002 1332.62 280.477 1331.75 280.291C1330.88 280.105 1329.97 280.272 1329.22 280.756C1328.47 281.241 1327.95 282.002 1327.76 282.873C1327.76 282.873 1320.08 318.428 1320.08 318.751C1319.97 319.167 1319.95 319.599 1320.01 320.023C1320.08 320.447 1320.22 320.855 1320.45 321.221C1320.67 321.588 1320.96 321.907 1321.31 322.159C1321.66 322.411 1322.05 322.591 1322.47 322.689H1322.64C1323.06 322.797 1323.5 322.82 1323.92 322.757C1324.35 322.694 1324.76 322.546 1325.13 322.322C1325.5 322.098 1325.82 321.802 1326.07 321.452C1326.32 321.102 1326.5 320.705 1326.6 320.285C1326.59 320.231 1326.59 320.177 1326.6 320.123C1326.69 319.704 1327.66 314.975 1327.66 314.975C1328.02 313.232 1328.9 311.64 1330.19 310.414C1331.48 309.187 1333.12 308.385 1334.88 308.115C1335.62 308.002 1338.73 307.793 1338.73 307.793C1344.93 307.175 1350.66 304.218 1354.75 299.526C1358.85 294.833 1361 288.756 1360.77 282.532C1360.54 276.309 1357.95 270.406 1353.53 266.026C1349.1 261.645 1343.17 259.117 1336.94 258.954V258.954Z" fill="#1E1E1E"/>
<path d="M1338.43 315.439C1337.9 315.329 1337.35 315.325 1336.82 315.428C1336.29 315.531 1335.78 315.739 1335.33 316.04C1334.88 316.34 1334.49 316.727 1334.19 317.178C1333.9 317.629 1333.69 318.135 1333.59 318.667C1333.47 319.19 1333.46 319.73 1333.56 320.256C1333.65 320.782 1333.85 321.285 1334.14 321.734C1334.43 322.184 1334.8 322.572 1335.24 322.877C1335.68 323.181 1336.18 323.396 1336.7 323.509H1336.81C1337.33 323.634 1337.86 323.654 1338.39 323.57C1338.91 323.486 1339.41 323.299 1339.86 323.02C1340.31 322.741 1340.7 322.375 1341.01 321.944C1341.32 321.512 1341.54 321.024 1341.66 320.507V320.281C1341.84 319.214 1341.61 318.118 1341.01 317.217C1340.41 316.316 1339.48 315.68 1338.43 315.439Z" fill="#E6007A"/>
</g>
<g filter="url(#filter7_d_502_3)">
<rect x="416" y="217" width="80" height="80" rx="40" fill="white" shape-rendering="crispEdges"/>
<path fill-rule="evenodd" clip-rule="evenodd" d="M481 233.542V251.875L427.667 273.542L481 233.542Z" fill="#2FE9FF"/>
<path fill-rule="evenodd" clip-rule="evenodd" d="M471 232.708V264.375C471 273.58 463.538 281.042 454.334 281.042C445.129 281.042 437.667 273.58 437.667 264.375V251.042L447.667 245.542V264.375C447.667 267.597 450.279 270.208 453.5 270.208C456.722 270.208 459.334 267.597 459.334 264.375V239.125L471 232.708Z" fill="#4C47F7"/>
</g>
<g filter="url(#filter8_d_502_3)">
<path d="M1397.53 702.841L1344.2 742.613L1354.06 719.148L1397.53 702.841Z" fill="#E2761B"/>
<path d="M1274.42 702.841L1327.32 742.99L1317.94 719.148L1274.42 702.841ZM1378.34 795.033L1364.14 816.883L1394.52 825.279L1403.26 795.517L1378.34 795.033ZM1268.79 795.517L1277.47 825.279L1307.86 816.883L1293.66 795.033L1268.79 795.517Z" fill="#E4761B"/>
<path d="M1306.15 758.113L1297.68 770.976L1327.85 772.321L1326.78 739.761L1306.15 758.113ZM1365.8 758.113L1344.9 739.384L1344.2 772.321L1374.32 770.976L1365.8 758.113ZM1307.86 816.883L1325.98 808.003L1310.33 795.732L1307.86 816.883ZM1345.97 808.003L1364.14 816.883L1361.62 795.732L1345.97 808.003Z" fill="#E4761B"/>
<path d="M1364.14 816.883L1345.97 808.003L1347.41 819.897L1347.25 824.902L1364.14 816.883ZM1307.86 816.883L1324.74 824.902L1324.64 819.897L1325.98 808.003L1307.86 816.883Z" fill="#D7C1B3"/>
<path d="M1325.01 787.875L1309.9 783.408L1320.56 778.51L1325.01 787.875ZM1346.93 787.875L1351.38 778.51L1362.1 783.408L1346.93 787.875Z" fill="#233447"/>
<path d="M1307.86 816.883L1310.43 795.033L1293.66 795.517L1307.86 816.883ZM1361.56 795.033L1364.14 816.883L1378.34 795.517L1361.56 795.033ZM1374.32 770.975L1344.2 772.321L1346.99 787.875L1351.43 778.51L1362.15 783.408L1374.32 770.975ZM1309.9 783.408L1320.62 778.51L1325.01 787.875L1327.85 772.321L1297.68 770.975L1309.9 783.408Z" fill="#CD6116"/>
<path d="M1297.68 770.975L1310.33 795.732L1309.9 783.408L1297.68 770.975ZM1362.15 783.408L1361.62 795.732L1374.32 770.975L1362.15 783.408ZM1327.85 772.321L1325.01 787.875L1328.55 806.227L1329.35 782.062L1327.85 772.321ZM1344.2 772.321L1342.75 782.008L1343.39 806.227L1346.99 787.875L1344.2 772.321Z" fill="#E4751F"/>
<path d="M1346.99 787.875L1343.39 806.227L1345.97 808.003L1361.62 795.732L1362.15 783.408L1346.99 787.875ZM1309.9 783.408L1310.33 795.732L1325.98 808.003L1328.55 806.227L1325.01 787.875L1309.9 783.408Z" fill="#F6851B"/>
<path d="M1347.25 824.902L1347.41 819.897L1346.07 818.713H1325.87L1324.64 819.897L1324.74 824.902L1307.86 816.883L1313.76 821.727L1325.71 830.069H1346.23L1358.24 821.727L1364.14 816.883L1347.25 824.902Z" fill="#C0AD9E"/>
<path d="M1345.97 808.003L1343.39 806.227H1328.55L1325.98 808.003L1324.64 819.897L1325.87 818.713H1346.07L1347.41 819.897L1345.97 808.003Z" fill="#161616"/>
<path d="M1399.78 745.196L1404.33 723.238L1397.53 702.841L1345.97 741.267L1365.8 758.113L1393.83 766.347L1400.04 759.082L1397.36 757.144L1401.65 753.215L1398.33 750.632L1402.62 747.349L1399.78 745.196ZM1267.66 723.238L1272.22 745.196L1269.33 747.349L1273.61 750.632L1270.34 753.215L1274.63 757.144L1271.95 759.082L1278.12 766.347L1306.15 758.113L1325.98 741.267L1274.42 702.841L1267.66 723.238Z" fill="#763D16"/>
<path d="M1393.83 766.347L1365.8 758.113L1374.32 770.975L1361.62 795.732L1378.34 795.517H1403.26L1393.83 766.347ZM1306.15 758.113L1278.12 766.347L1268.79 795.517H1293.66L1310.33 795.732L1297.68 770.975L1306.15 758.113ZM1344.2 772.321L1345.97 741.267L1354.11 719.148H1317.94L1325.98 741.267L1327.85 772.321L1328.49 782.116L1328.55 806.227H1343.39L1343.5 782.116L1344.2 772.321Z" fill="#F6851B"/>
</g>
<defs>
<filter id="filter0_d_502_3" x="157" y="88" width="1206" height="626" filterUnits="userSpaceOnUse" color-interpolation-filters="sRGB">
<feFlood flood-opacity="0" result="BackgroundImageFix"/>
<feColorMatrix in="SourceAlpha" type="matrix" values="0 0 0 0 0 0 0 0 0 0 0 0 0 0 0 0 0 0 127 0" result="hardAlpha"/>
<feMorphology radius="13" operator="dilate" in="SourceAlpha" result="effect1_dropShadow_502_3"/>
<feOffset dy="4"/>
<feGaussianBlur stdDeviation="14"/>
<feComposite in2="hardAlpha" operator="out"/>
<feColorMatrix type="matrix" values="0 0 0 0 0 0 0 0 0 0 0 0 0 0 0 0 0 0 0.25 0"/>
<feBlend mode="normal" in2="BackgroundImageFix" result="effect1_dropShadow_502_3"/>
<feBlend mode="normal" in="SourceGraphic" in2="effect1_dropShadow_502_3" result="shape"/>
</filter>
<filter id="filter1_d_502_3" x="1000" y="55" width="234.467" height="234.467" filterUnits="userSpaceOnUse" color-interpolation-filters="sRGB">
<feFlood flood-opacity="0" result="BackgroundImageFix"/>
<feColorMatrix in="SourceAlpha" type="matrix" values="0 0 0 0 0 0 0 0 0 0 0 0 0 0 0 0 0 0 127 0" result="hardAlpha"/>
<feMorphology radius="13" operator="dilate" in="SourceAlpha" result="effect1_dropShadow_502_3"/>
<feOffset dy="4"/>
<feGaussianBlur stdDeviation="14"/>
<feComposite in2="hardAlpha" operator="out"/>
<feColorMatrix type="matrix" values="0 0 0 0 0 0 0 0 0 0 0 0 0 0 0 0 0 0 0.25 0"/>
<feBlend mode="normal" in2="BackgroundImageFix" result="effect1_dropShadow_502_3"/>
<feBlend mode="normal" in="SourceGraphic" in2="effect1_dropShadow_502_3" result="shape"/>
</filter>
<filter id="filter2_d_502_3" x="1085" y="480" width="234.467" height="234.467" filterUnits="userSpaceOnUse" color-interpolation-filters="sRGB">
<feFlood flood-opacity="0" result="BackgroundImageFix"/>
<feColorMatrix in="SourceAlpha" type="matrix" values="0 0 0 0 0 0 0 0 0 0 0 0 0 0 0 0 0 0 127 0" result="hardAlpha"/>
<feMorphology radius="13" operator="dilate" in="SourceAlpha" result="effect1_dropShadow_502_3"/>
<feOffset dy="4"/>
<feGaussianBlur stdDeviation="14"/>
<feComposite in2="hardAlpha" operator="out"/>
<feColorMatrix type="matrix" values="0 0 0 0 0 0 0 0 0 0 0 0 0 0 0 0 0 0 0.25 0"/>
<feBlend mode="normal" in2="BackgroundImageFix" result="effect1_dropShadow_502_3"/>
<feBlend mode="normal" in="SourceGraphic" in2="effect1_dropShadow_502_3" result="shape"/>
</filter>
<filter id="filter3_d_502_3" x="104" y="596" width="187.467" height="187.467" filterUnits="userSpaceOnUse" color-interpolation-filters="sRGB">
<feFlood flood-opacity="0" result="BackgroundImageFix"/>
<feColorMatrix in="SourceAlpha" type="matrix" values="0 0 0 0 0 0 0 0 0 0 0 0 0 0 0 0 0 0 127 0" result="hardAlpha"/>
<feMorphology radius="13" operator="dilate" in="SourceAlpha" result="effect1_dropShadow_502_3"/>
<feOffset dy="4"/>
<feGaussianBlur stdDeviation="14"/>
<feComposite in2="hardAlpha" operator="out"/>
<feColorMatrix type="matrix" values="0 0 0 0 0 0 0 0 0 0 0 0 0 0 0 0 0 0 0.25 0"/>
<feBlend mode="normal" in2="BackgroundImageFix" result="effect1_dropShadow_502_3"/>
<feBlend mode="normal" in="SourceGraphic" in2="effect1_dropShadow_502_3" result="shape"/>
</filter>
<filter id="filter4_d_502_3" x="397" y="598" width="234.467" height="234.467" filterUnits="userSpaceOnUse" color-interpolation-filters="sRGB">
<feFlood flood-opacity="0" result="BackgroundImageFix"/>
<feColorMatrix in="SourceAlpha" type="matrix" values="0 0 0 0 0 0 0 0 0 0 0 0 0 0 0 0 0 0 127 0" result="hardAlpha"/>
<feMorphology radius="13" operator="dilate" in="SourceAlpha" result="effect1_dropShadow_502_3"/>
<feOffset dy="4"/>
<feGaussianBlur stdDeviation="14"/>
<feComposite in2="hardAlpha" operator="out"/>
<feColorMatrix type="matrix" values="0 0 0 0 0 0 0 0 0 0 0 0 0 0 0 0 0 0 0.25 0"/>
<feBlend mode="normal" in2="BackgroundImageFix" result="effect1_dropShadow_502_3"/>
<feBlend mode="normal" in="SourceGraphic" in2="effect1_dropShadow_502_3" result="shape"/>
</filter>
<filter id="filter5_d_502_3" x="236" y="19" width="184" height="184" filterUnits="userSpaceOnUse" color-interpolation-filters="sRGB">
<feFlood flood-opacity="0" result="BackgroundImageFix"/>
<feColorMatrix in="SourceAlpha" type="matrix" values="0 0 0 0 0 0 0 0 0 0 0 0 0 0 0 0 0 0 127 0" result="hardAlpha"/>
<feMorphology radius="13" operator="dilate" in="SourceAlpha" result="effect1_dropShadow_502_3"/>
<feOffset dy="4"/>
<feGaussianBlur stdDeviation="14"/>
<feComposite in2="hardAlpha" operator="out"/>
<feColorMatrix type="matrix" values="0 0 0 0 0 0 0 0 0 0 0 0 0 0 0 0 0 0 0.25 0"/>
<feBlend mode="normal" in2="BackgroundImageFix" result="effect1_dropShadow_502_3"/>
<feBlend mode="normal" in="SourceGraphic" in2="effect1_dropShadow_502_3" result="shape"/>
</filter>
<filter id="filter6_d_502_3" x="1251.17" y="211.667" width="168.658" height="168.658" filterUnits="userSpaceOnUse" color-interpolation-filters="sRGB">
<feFlood flood-opacity="0" result="BackgroundImageFix"/>
<feColorMatrix in="SourceAlpha" type="matrix" values="0 0 0 0 0 0 0 0 0 0 0 0 0 0 0 0 0 0 127 0" result="hardAlpha"/>
<feMorphology radius="11.3604" operator="dilate" in="SourceAlpha" result="effect1_dropShadow_502_3"/>
<feOffset dy="3.4955"/>
<feGaussianBlur stdDeviation="12.2342"/>
<feComposite in2="hardAlpha" operator="out"/>
<feColorMatrix type="matrix" values="0 0 0 0 0 0 0 0 0 0 0 0 0 0 0 0 0 0 0.25 0"/>
<feBlend mode="normal" in2="BackgroundImageFix" result="effect1_dropShadow_502_3"/>
<feBlend mode="normal" in="SourceGraphic" in2="effect1_dropShadow_502_3" result="shape"/>
</filter>
<filter id="filter7_d_502_3" x="375" y="180" width="162" height="162" filterUnits="userSpaceOnUse" color-interpolation-filters="sRGB">
<feFlood flood-opacity="0" result="BackgroundImageFix"/>
<feColorMatrix in="SourceAlpha" type="matrix" values="0 0 0 0 0 0 0 0 0 0 0 0 0 0 0 0 0 0 127 0" result="hardAlpha"/>
<feMorphology radius="13" operator="dilate" in="SourceAlpha" result="effect1_dropShadow_502_3"/>
<feOffset dy="4"/>
<feGaussianBlur stdDeviation="14"/>
<feComposite in2="hardAlpha" operator="out"/>
<feColorMatrix type="matrix" values="0 0 0 0 0 0 0 0 0 0 0 0 0 0 0 0 0 0 0.25 0"/>
<feBlend mode="normal" in2="BackgroundImageFix" result="effect1_dropShadow_502_3"/>
<feBlend mode="normal" in="SourceGraphic" in2="effect1_dropShadow_502_3" result="shape"/>
</filter>
<filter id="filter8_d_502_3" x="1201.06" y="637.22" width="269.89" height="269.89" filterUnits="userSpaceOnUse" color-interpolation-filters="sRGB">
<feFlood flood-opacity="0" result="BackgroundImageFix"/>
<feColorMatrix in="SourceAlpha" type="matrix" values="0 0 0 0 0 0 0 0 0 0 0 0 0 0 0 0 0 0 127 0" result="hardAlpha"/>
<feMorphology radius="16.7874" operator="dilate" in="SourceAlpha" result="effect1_dropShadow_502_3"/>
<feOffset dy="5.16535"/>
<feGaussianBlur stdDeviation="18.0787"/>
<feComposite in2="hardAlpha" operator="out"/>
<feColorMatrix type="matrix" values="0 0 0 0 0 0 0 0 0 0 0 0 0 0 0 0 0 0 0.25 0"/>
<feBlend mode="normal" in2="BackgroundImageFix" result="effect1_dropShadow_502_3"/>
<feBlend mode="normal" in="SourceGraphic" in2="effect1_dropShadow_502_3" result="shape"/>
</filter>
<linearGradient id="paint0_linear_502_3" x1="1151.41" y1="593.236" x2="1253.06" y2="593.236" gradientUnits="userSpaceOnUse">
<stop stop-color="#0082FA"/>
<stop offset="1" stop-color="#00F2FE"/>
</linearGradient>
<linearGradient id="paint1_linear_502_3" x1="1151.41" y1="593.234" x2="1253.06" y2="593.234" gradientUnits="userSpaceOnUse">
<stop stop-color="#0082FA"/>
<stop offset="1" stop-color="#00F2FE"/>
</linearGradient>
<linearGradient id="paint2_linear_502_3" x1="165.843" y1="723.863" x2="228.934" y2="723.863" gradientUnits="userSpaceOnUse">
<stop stop-color="#FF5500"/>
<stop offset="0.409877" stop-color="#FF5500"/>
<stop offset="0.49434" stop-color="#FF4530"/>
<stop offset="0.572365" stop-color="#FF2000"/>
<stop offset="1" stop-color="#FF2000"/>
</linearGradient>
<linearGradient id="paint3_linear_502_3" x1="197.318" y1="718.604" x2="220.227" y2="718.604" gradientUnits="userSpaceOnUse">
<stop stop-color="white"/>
<stop offset="1" stop-color="#F4F4F4"/>
</linearGradient>
<linearGradient id="paint4_linear_502_3" x1="367.982" y1="107.004" x2="305.969" y2="107.004" gradientUnits="userSpaceOnUse">
<stop stop-color="#FF9373"/>
<stop offset="1" stop-color="#E41A72"/>
</linearGradient>
</defs>
</svg>
