<svg width="552" height="556" viewBox="0 0 552 556" fill="none" xmlns="http://www.w3.org/2000/svg">
<path fill-rule="evenodd" clip-rule="evenodd" d="M46.6656 100.999C-15.5245 200.049 -5.58654 400.605 116.04 483.279C230.278 560.931 310.369 527.439 471.261 430.041C486.596 420.758 500.001 408.44 511.251 393.884C498.386 414.196 481.842 431.177 462.1 443.128C301.207 540.526 221.117 574.018 106.878 496.366C-16.5744 412.451 -24.9596 207.088 40.3534 109.694C42.3511 106.716 44.4567 103.817 46.6656 100.999ZM46.6656 100.999C47.5993 99.5119 48.5492 98.0477 49.5152 96.6072C114.828 -0.786163 295.482 -12.2014 429.506 60.7076C568.543 136.343 579.215 305.952 511.251 393.884C568.747 303.112 552.765 145.832 420.344 73.7949C290.419 3.11598 116.674 11.6817 46.6656 100.999Z" fill="#253B80"/>
<path d="M304.024 528.133C142.965 572.101 21.2795 437.564 11.3864 296.489C1.49345 155.413 100.484 20.6897 244.371 21.0324C447.067 21.515 548.676 211.495 533.695 310.673C501.286 525.243 442.663 490.285 304.024 528.133Z" fill="black"/>
<path fill-rule="evenodd" clip-rule="evenodd" d="M281.84 516.261C425.491 516.261 583.709 338.909 512.843 244.757C483.84 206.225 470.269 173.351 458.474 144.782C436.74 92.1333 421.038 54.0982 325.915 22.1876C186.791 -24.4837 11.5328 125.965 28.8155 286.904C35.0562 345.018 53.766 376.992 84.946 419.455C90.002 426.34 94.5319 434.201 99.1043 442.136C107.63 456.93 116.303 471.981 128.809 481.444C165.933 509.535 228.509 516.261 281.84 516.261ZM295.075 501.751C430.761 501.751 512.803 349.134 512.803 285.744C512.803 264.714 499.319 246.197 486.293 228.31C478.604 217.751 471.074 207.412 466.573 196.905C431.767 115.655 378.918 56.2063 278.289 56.2063C142.603 56.2063 40.0643 145.135 40.0643 274.582C40.0643 317.075 50.0689 332.343 65.6978 356.195C76.3706 372.483 89.6663 392.774 104.19 428.471C135.688 505.89 212.552 503.798 271.93 502.183C280.023 501.963 287.791 501.751 295.075 501.751Z" fill="#1A73E8"/>
<path d="M512.804 285.744C512.804 349.134 430.761 501.751 295.075 501.751C234.348 501.751 139.981 516.441 104.19 428.471C68.3992 340.5 40.0647 346.093 40.0647 274.582C40.0647 145.135 142.604 56.2063 278.29 56.2063C378.919 56.2063 431.768 115.655 466.574 196.905C478.699 225.21 512.804 252.299 512.804 285.744Z" fill="#270D9F"/>
<path d="M475.048 213.915C495.044 267.782 473.308 422.523 357.741 463.958C306.018 482.502 230.277 523.802 172.044 459.977C113.811 396.152 91.442 409.557 68.8846 348.789C28.0524 238.79 87.3355 131.909 202.902 90.4751C288.611 59.7461 352.376 94.1249 407.65 152.54C426.906 172.89 464.498 185.494 475.048 213.915Z" fill="white"/>
<path fill-rule="evenodd" clip-rule="evenodd" d="M319.875 327.556C323.603 327.556 326.625 330.64 326.625 334.444C326.625 338.249 323.603 341.333 319.875 341.333H259.125C258.728 341.333 258.339 341.298 257.962 341.231C236.278 340.255 216.366 332.319 200.319 319.557C199.014 318.519 197.048 316.799 195.59 315.504C194.343 314.397 192.75 313.778 191.097 313.778H174.75C171.022 313.778 168 310.694 168 306.889C168 303.084 171.022 300 174.75 300H181.5C185.228 300 188.25 296.916 188.25 293.111C188.25 289.306 185.228 286.222 181.5 286.222H164.625C160.897 286.222 157.875 283.138 157.875 279.333C157.875 275.529 160.897 272.444 164.625 272.444H168C171.728 272.444 174.75 269.36 174.75 265.556C174.75 261.751 171.728 258.667 168 258.667C165.271 258.667 162.936 256.659 162.482 253.912C162.317 252.914 162.186 252.111 162.164 251.947C161.561 247.386 161.25 242.73 161.25 238C161.25 180.931 206.581 134.667 262.5 134.667C279.375 134.667 296.25 134.667 313.125 134.667C316.853 134.667 319.875 137.751 319.875 141.556C319.875 145.36 316.853 148.444 313.125 148.444H303C299.272 148.444 296.25 151.529 296.25 155.333C296.25 159.138 299.272 162.222 303 162.222H343.5C347.228 162.222 350.25 165.306 350.25 169.111C350.25 172.913 347.232 175.996 343.507 176L333.375 176C329.647 176 326.625 179.084 326.625 182.889C326.625 186.694 329.647 189.778 333.375 189.778H347.908C350.46 189.778 352.8 191.245 353.907 193.592C354.572 195.003 355.272 196.525 355.73 197.625C360.893 210.029 363.75 223.674 363.75 238C363.75 242.501 363.468 246.935 362.921 251.285C362.829 252.016 362.688 252.955 362.534 253.916C362.094 256.673 359.737 258.667 357 258.667C353.272 258.667 350.25 261.751 350.25 265.556C350.25 269.36 353.272 272.444 357 272.444H360.375C364.103 272.444 367.125 275.529 367.125 279.333C367.125 283.138 364.103 286.222 360.375 286.222H356.042C353.592 286.222 351.338 287.58 350.114 289.747C349.319 291.154 348.435 292.684 347.778 293.729C346.238 296.178 344.6 298.556 342.87 300.857C341.131 303.169 339.299 305.404 337.379 307.555C336.326 308.736 334.619 310.485 333.287 311.828C332.042 313.085 330.358 313.778 328.607 313.778H309.75C306.022 313.778 303 316.862 303 320.667C303 324.445 305.98 327.513 309.672 327.555L319.875 327.556Z" fill="url(#paint0_linear_11_46)"/>
<g opacity="0.1">
<path fill-rule="evenodd" clip-rule="evenodd" d="M251.665 158.08C258.348 154.142 266.642 154.142 273.325 158.08L325.224 188.66C331.732 192.495 335.727 199.486 335.727 207.04V268.96C335.727 276.514 331.732 283.505 325.224 287.34L273.325 317.92C266.642 321.858 258.348 321.858 251.665 317.92L199.766 287.34C193.257 283.505 189.262 276.514 189.262 268.96L189.262 207.04C189.262 199.486 193.257 192.495 199.766 188.66L251.665 158.08Z" fill="black" style="mix-blend-mode:multiply"/>
</g>
<path d="M145.202 407L145.202 377.909L152.233 377.909L152.233 401.29L164.335 401.29L164.335 407L145.202 407ZM174.126 407.369C172.734 407.369 171.498 407.137 170.418 406.673C169.348 406.2 168.501 405.49 167.876 404.543C167.26 403.586 166.952 402.388 166.952 400.949C166.952 399.737 167.165 398.714 167.592 397.881C168.018 397.047 168.605 396.37 169.353 395.849C170.101 395.329 170.963 394.936 171.938 394.67C172.914 394.396 173.955 394.211 175.063 394.116C176.304 394.003 177.303 393.884 178.06 393.761C178.818 393.629 179.367 393.444 179.708 393.207C180.058 392.961 180.234 392.616 180.234 392.17L180.234 392.099C180.234 391.37 179.983 390.807 179.481 390.409C178.979 390.011 178.302 389.813 177.45 389.813C176.531 389.813 175.792 390.011 175.234 390.409C174.675 390.807 174.32 391.356 174.168 392.057L167.762 391.83C167.951 390.504 168.439 389.32 169.225 388.278C170.021 387.227 171.11 386.403 172.492 385.807C173.884 385.201 175.556 384.898 177.506 384.898C178.898 384.898 180.182 385.063 181.356 385.395C182.53 385.717 183.553 386.19 184.424 386.815C185.295 387.431 185.968 388.188 186.441 389.088C186.924 389.988 187.165 391.015 187.165 392.17L187.165 407L180.631 407L180.631 403.96L180.461 403.96C180.073 404.699 179.576 405.324 178.969 405.835C178.373 406.347 177.667 406.73 176.853 406.986C176.048 407.241 175.139 407.369 174.126 407.369ZM176.271 402.824C177.019 402.824 177.691 402.672 178.288 402.369C178.894 402.066 179.377 401.65 179.737 401.119C180.096 400.58 180.276 399.955 180.276 399.244L180.276 397.17C180.077 397.275 179.836 397.369 179.552 397.455C179.277 397.54 178.974 397.62 178.643 397.696C178.311 397.772 177.97 397.838 177.62 397.895C177.27 397.952 176.933 398.004 176.612 398.051C175.958 398.155 175.399 398.316 174.935 398.534C174.481 398.752 174.13 399.036 173.884 399.386C173.647 399.727 173.529 400.134 173.529 400.608C173.529 401.328 173.785 401.877 174.296 402.256C174.817 402.634 175.475 402.824 176.271 402.824ZM195.489 407L189.808 385.182L196.782 385.182L199.722 399.159L199.907 399.159L203.06 385.182L209.864 385.182L213.103 399.06L213.288 399.06L216.143 385.182L223.117 385.182L217.421 407L209.992 407L206.583 394.287L206.342 394.287L202.933 407L195.489 407ZM235.635 407.412C233.353 407.412 231.383 406.962 229.726 406.063C228.078 405.153 226.809 403.861 225.919 402.185C225.038 400.499 224.598 398.496 224.598 396.176C224.598 393.922 225.043 391.953 225.933 390.267C226.823 388.572 228.078 387.256 229.697 386.318C231.317 385.371 233.225 384.898 235.422 384.898C236.975 384.898 238.395 385.139 239.683 385.622C240.971 386.105 242.084 386.82 243.021 387.767C243.959 388.714 244.688 389.884 245.209 391.276C245.73 392.658 245.99 394.244 245.99 396.034L245.99 397.767L227.027 397.767L227.027 393.733L239.527 393.733C239.518 392.994 239.342 392.336 239.001 391.759C238.661 391.181 238.192 390.731 237.595 390.409C237.008 390.078 236.331 389.912 235.564 389.912C234.787 389.912 234.091 390.087 233.476 390.438C232.86 390.778 232.373 391.247 232.013 391.844C231.653 392.431 231.464 393.098 231.445 393.847L231.445 397.952C231.445 398.842 231.62 399.623 231.97 400.295C232.321 400.958 232.818 401.474 233.462 401.844C234.106 402.213 234.873 402.398 235.763 402.398C236.378 402.398 236.937 402.313 237.439 402.142C237.941 401.972 238.372 401.721 238.732 401.389C239.091 401.058 239.361 400.651 239.541 400.168L245.919 400.352C245.654 401.782 245.071 403.027 244.172 404.088C243.282 405.139 242.112 405.958 240.663 406.545C239.214 407.123 237.538 407.412 235.635 407.412ZM249.538 407L249.538 385.182L256.285 385.182L256.285 389.159L256.512 389.159C256.91 387.72 257.558 386.65 258.458 385.949C259.358 385.239 260.404 384.884 261.597 384.884C261.919 384.884 262.251 384.907 262.592 384.955C262.933 384.992 263.25 385.054 263.543 385.139L263.543 391.176C263.212 391.062 262.776 390.973 262.237 390.906C261.706 390.84 261.233 390.807 260.816 390.807C259.992 390.807 259.249 390.991 258.586 391.361C257.933 391.721 257.416 392.227 257.038 392.881C256.668 393.525 256.484 394.282 256.484 395.153L256.484 407L249.538 407ZM274.967 377.909L283.675 377.909L291.061 395.92L291.402 395.92L298.788 377.909L307.496 377.909L307.496 407L300.649 407L300.649 389.131L300.408 389.131L293.419 406.815L289.044 406.815L282.055 389.031L281.814 389.031L281.814 407L274.967 407L274.967 377.909ZM318.032 407.369C316.64 407.369 315.404 407.137 314.325 406.673C313.254 406.2 312.407 405.49 311.782 404.543C311.166 403.586 310.859 402.388 310.859 400.949C310.859 399.737 311.072 398.714 311.498 397.881C311.924 397.047 312.511 396.37 313.259 395.849C314.007 395.329 314.869 394.936 315.844 394.67C316.82 394.396 317.862 394.211 318.969 394.116C320.21 394.003 321.209 393.884 321.967 393.761C322.724 393.629 323.273 393.444 323.614 393.207C323.965 392.961 324.14 392.616 324.14 392.17L324.14 392.099C324.14 391.37 323.889 390.807 323.387 390.409C322.885 390.011 322.208 389.813 321.356 389.813C320.437 389.813 319.699 390.011 319.14 390.409C318.581 390.807 318.226 391.356 318.075 392.057L311.668 391.83C311.858 390.504 312.345 389.32 313.131 388.278C313.927 387.227 315.016 386.403 316.398 385.807C317.79 385.201 319.462 384.898 321.413 384.898C322.805 384.898 324.088 385.063 325.262 385.395C326.436 385.717 327.459 386.19 328.33 386.815C329.201 387.431 329.874 388.188 330.347 389.088C330.83 389.988 331.072 391.015 331.072 392.17L331.072 407L324.538 407L324.538 403.96L324.367 403.96C323.979 404.699 323.482 405.324 322.876 405.835C322.279 406.347 321.574 406.73 320.759 406.986C319.954 407.241 319.045 407.369 318.032 407.369ZM320.177 402.824C320.925 402.824 321.597 402.672 322.194 402.369C322.8 402.066 323.283 401.65 323.643 401.119C324.003 400.58 324.183 399.955 324.183 399.244L324.183 397.17C323.984 397.275 323.742 397.369 323.458 397.455C323.183 397.54 322.88 397.62 322.549 397.696C322.218 397.772 321.877 397.838 321.526 397.895C321.176 397.952 320.84 398.004 320.518 398.051C319.864 398.155 319.306 398.316 318.842 398.534C318.387 398.752 318.037 399.036 317.79 399.386C317.554 399.727 317.435 400.134 317.435 400.608C317.435 401.328 317.691 401.877 318.202 402.256C318.723 402.634 319.381 402.824 320.177 402.824ZM354.367 391.844L347.989 392.014C347.923 391.56 347.743 391.157 347.45 390.807C347.156 390.447 346.772 390.168 346.299 389.969C345.835 389.76 345.295 389.656 344.68 389.656C343.875 389.656 343.188 389.817 342.62 390.139C342.061 390.461 341.787 390.897 341.796 391.446C341.787 391.872 341.957 392.241 342.308 392.554C342.667 392.866 343.307 393.117 344.225 393.307L348.43 394.102C350.608 394.519 352.227 395.21 353.288 396.176C354.358 397.142 354.897 398.42 354.907 400.011C354.897 401.508 354.452 402.81 353.572 403.918C352.701 405.026 351.507 405.887 349.992 406.503C348.477 407.109 346.744 407.412 344.793 407.412C341.678 407.412 339.22 406.773 337.421 405.494C335.631 404.206 334.609 402.483 334.353 400.324L341.214 400.153C341.365 400.949 341.758 401.555 342.393 401.972C343.027 402.388 343.837 402.597 344.822 402.597C345.712 402.597 346.436 402.431 346.995 402.099C347.554 401.768 347.838 401.328 347.847 400.778C347.838 400.286 347.62 399.893 347.194 399.599C346.768 399.296 346.1 399.06 345.191 398.889L341.384 398.165C339.197 397.767 337.568 397.033 336.498 395.963C335.428 394.884 334.897 393.51 334.907 391.844C334.897 390.385 335.286 389.14 336.072 388.108C336.858 387.066 337.975 386.271 339.424 385.722C340.873 385.172 342.582 384.898 344.552 384.898C347.506 384.898 349.836 385.518 351.54 386.759C353.245 387.99 354.187 389.685 354.367 391.844ZM370.642 385.182L370.642 390.295L356.878 390.295L356.878 385.182L370.642 385.182ZM359.761 379.955L366.707 379.955L366.707 400.139C366.707 400.565 366.774 400.911 366.906 401.176C367.048 401.432 367.252 401.616 367.517 401.73C367.782 401.834 368.099 401.886 368.469 401.886C368.734 401.886 369.013 401.863 369.307 401.815C369.61 401.759 369.837 401.711 369.989 401.673L371.04 406.688C370.708 406.782 370.24 406.901 369.634 407.043C369.037 407.185 368.322 407.275 367.489 407.313C365.86 407.388 364.463 407.199 363.298 406.744C362.143 406.28 361.258 405.561 360.642 404.585C360.036 403.61 359.742 402.384 359.761 400.906L359.761 379.955ZM384.151 407.412C381.868 407.412 379.899 406.962 378.241 406.063C376.594 405.153 375.325 403.861 374.435 402.185C373.554 400.499 373.114 398.496 373.114 396.176C373.114 393.922 373.559 391.953 374.449 390.267C375.339 388.572 376.594 387.256 378.213 386.318C379.832 385.371 381.741 384.898 383.937 384.898C385.491 384.898 386.911 385.139 388.199 385.622C389.487 386.105 390.599 386.82 391.537 387.767C392.474 388.714 393.204 389.884 393.724 391.276C394.245 392.658 394.506 394.244 394.506 396.034L394.506 397.767L375.543 397.767L375.543 393.733L388.043 393.733C388.033 392.994 387.858 392.336 387.517 391.759C387.176 391.181 386.707 390.731 386.111 390.409C385.524 390.078 384.847 389.912 384.08 389.912C383.303 389.912 382.607 390.087 381.991 390.438C381.376 390.778 380.888 391.247 380.528 391.844C380.169 392.431 379.979 393.098 379.96 393.847L379.96 397.952C379.96 398.842 380.135 399.623 380.486 400.295C380.836 400.958 381.333 401.474 381.977 401.844C382.621 402.213 383.388 402.398 384.278 402.398C384.894 402.398 385.453 402.313 385.955 402.142C386.456 401.972 386.887 401.721 387.247 401.389C387.607 401.058 387.877 400.651 388.057 400.168L394.435 400.352C394.17 401.782 393.587 403.027 392.687 404.088C391.797 405.139 390.628 405.958 389.179 406.545C387.73 407.123 386.054 407.412 384.151 407.412ZM398.053 407L398.053 385.182L404.8 385.182L404.8 389.159L405.028 389.159C405.425 387.72 406.074 386.65 406.974 385.949C407.873 385.239 408.92 384.884 410.113 384.884C410.435 384.884 410.766 384.907 411.107 384.955C411.448 384.992 411.765 385.054 412.059 385.139L412.059 391.176C411.728 391.063 411.292 390.973 410.752 390.906C410.222 390.84 409.748 390.807 409.332 390.807C408.508 390.807 407.764 390.991 407.102 391.361C406.448 391.721 405.932 392.227 405.553 392.881C405.184 393.525 404.999 394.282 404.999 395.153L404.999 407L398.053 407Z" fill="#1868D2"/>
<defs>
<linearGradient id="paint0_linear_11_46" x1="157.875" y1="134.667" x2="157.875" y2="341.333" gradientUnits="userSpaceOnUse">
<stop stop-color="#1A73E8"/>
<stop offset="0.9999" stop-color="#1A73E8"/>
<stop offset="1" stop-color="#403F36"/>
</linearGradient>
</defs>
</svg>
