<svg width="552" height="556" viewBox="0 0 552 556" fill="none" xmlns="http://www.w3.org/2000/svg">
<path fill-rule="evenodd" clip-rule="evenodd" d="M46.6656 100.999C-15.5245 200.049 -5.58654 400.605 116.04 483.279C230.278 560.931 310.369 527.439 471.261 430.041C486.596 420.758 500.001 408.44 511.251 393.884C498.386 414.196 481.842 431.177 462.1 443.128C301.207 540.526 221.117 574.018 106.878 496.366C-16.5744 412.451 -24.9596 207.088 40.3534 109.694C42.3511 106.716 44.4567 103.817 46.6656 100.999ZM46.6656 100.999C47.5993 99.5119 48.5492 98.0477 49.5152 96.6072C114.828 -0.786163 295.482 -12.2014 429.506 60.7076C568.543 136.343 579.215 305.952 511.251 393.884C568.747 303.112 552.765 145.832 420.344 73.7949C290.419 3.11598 116.674 11.6817 46.6656 100.999Z" fill="#253B80"/>
<path d="M304.024 528.133C142.965 572.101 21.2795 437.564 11.3864 296.489C1.49345 155.413 100.484 20.6897 244.371 21.0324C447.067 21.515 548.676 211.495 533.695 310.673C501.286 525.243 442.663 490.285 304.024 528.133Z" fill="black"/>
<path fill-rule="evenodd" clip-rule="evenodd" d="M281.84 516.261C425.491 516.261 583.709 338.909 512.843 244.757C483.84 206.225 470.269 173.351 458.474 144.782C436.74 92.1333 421.038 54.0982 325.915 22.1876C186.791 -24.4837 11.5328 125.965 28.8155 286.904C35.0562 345.018 53.766 376.992 84.946 419.455C90.002 426.34 94.5319 434.201 99.1043 442.136C107.63 456.93 116.303 471.981 128.809 481.444C165.933 509.535 228.509 516.261 281.84 516.261ZM295.075 501.751C430.761 501.751 512.803 349.134 512.803 285.744C512.803 264.714 499.319 246.197 486.293 228.31C478.604 217.751 471.074 207.412 466.573 196.905C431.767 115.655 378.918 56.2063 278.289 56.2063C142.603 56.2063 40.0643 145.135 40.0643 274.582C40.0643 317.075 50.0689 332.343 65.6978 356.195C76.3706 372.483 89.6663 392.774 104.19 428.471C135.688 505.89 212.552 503.798 271.93 502.183C280.023 501.963 287.791 501.751 295.075 501.751Z" fill="#1A73E8"/>
<path d="M512.804 285.744C512.804 349.134 430.761 501.751 295.075 501.751C234.348 501.751 139.981 516.441 104.19 428.471C68.3992 340.5 40.0647 346.093 40.0647 274.582C40.0647 145.135 142.604 56.2063 278.29 56.2063C378.919 56.2063 431.768 115.655 466.574 196.905C478.699 225.21 512.804 252.299 512.804 285.744Z" fill="#270D9F"/>
<path d="M475.048 213.915C495.044 267.782 473.308 422.523 357.741 463.958C306.018 482.502 230.277 523.802 172.044 459.977C113.811 396.152 91.442 409.557 68.8846 348.789C28.0524 238.79 87.3355 131.909 202.902 90.4751C288.611 59.7461 352.376 94.1249 407.65 152.54C426.906 172.89 464.498 185.494 475.048 213.915Z" fill="white"/>
<path fill-rule="evenodd" clip-rule="evenodd" d="M316.875 365.556C320.603 365.556 323.625 368.64 323.625 372.444C323.625 376.249 320.603 379.333 316.875 379.333H256.125C255.728 379.333 255.339 379.298 254.962 379.231C233.278 378.255 213.366 370.319 197.319 357.557C196.014 356.519 194.048 354.799 192.59 353.504C191.343 352.397 189.75 351.778 188.097 351.778H171.75C168.022 351.778 165 348.694 165 344.889C165 341.084 168.022 338 171.75 338H178.5C182.228 338 185.25 334.916 185.25 331.111C185.25 327.306 182.228 324.222 178.5 324.222H161.625C157.897 324.222 154.875 321.138 154.875 317.333C154.875 313.529 157.897 310.444 161.625 310.444H165C168.728 310.444 171.75 307.36 171.75 303.556C171.75 299.751 168.728 296.667 165 296.667C162.271 296.667 159.936 294.659 159.482 291.912C159.317 290.914 159.186 290.111 159.164 289.947C158.561 285.386 158.25 280.73 158.25 276C158.25 218.931 203.581 172.667 259.5 172.667C276.375 172.667 293.25 172.667 310.125 172.667C313.853 172.667 316.875 175.751 316.875 179.556C316.875 183.36 313.853 186.444 310.125 186.444H300C296.272 186.444 293.25 189.529 293.25 193.333C293.25 197.138 296.272 200.222 300 200.222H340.5C344.228 200.222 347.25 203.306 347.25 207.111C347.25 210.913 344.232 213.996 340.507 214L330.375 214C326.647 214 323.625 217.084 323.625 220.889C323.625 224.694 326.647 227.778 330.375 227.778H344.908C347.46 227.778 349.8 229.245 350.907 231.592C351.572 233.003 352.272 234.525 352.73 235.625C357.893 248.029 360.75 261.674 360.75 276C360.75 280.501 360.468 284.935 359.921 289.285C359.829 290.016 359.688 290.955 359.534 291.916C359.094 294.673 356.737 296.667 354 296.667C350.272 296.667 347.25 299.751 347.25 303.556C347.25 307.36 350.272 310.444 354 310.444H357.375C361.103 310.444 364.125 313.529 364.125 317.333C364.125 321.138 361.103 324.222 357.375 324.222H353.042C350.592 324.222 348.338 325.58 347.114 327.747C346.319 329.154 345.435 330.684 344.778 331.729C343.238 334.178 341.6 336.556 339.87 338.857C338.131 341.169 336.299 343.404 334.379 345.555C333.326 346.736 331.619 348.485 330.287 349.828C329.042 351.085 327.358 351.778 325.607 351.778H306.75C303.022 351.778 300 354.862 300 358.667C300 362.445 302.98 365.513 306.672 365.555L316.875 365.556Z" fill="url(#paint0_linear_12_16)"/>
<g opacity="0.1">
<path fill-rule="evenodd" clip-rule="evenodd" d="M248.665 196.08C255.348 192.142 263.642 192.142 270.325 196.08L322.224 226.66C328.732 230.495 332.727 237.486 332.727 245.04V306.96C332.727 314.514 328.732 321.505 322.224 325.34L270.325 355.92C263.642 359.858 255.348 359.858 248.665 355.92L196.766 325.34C190.257 321.505 186.262 314.514 186.262 306.96L186.262 245.04C186.262 237.486 190.257 230.495 196.766 226.66L248.665 196.08Z" fill="black" style="mix-blend-mode:multiply"/>
</g>
<defs>
<linearGradient id="paint0_linear_12_16" x1="154.875" y1="172.667" x2="154.875" y2="379.333" gradientUnits="userSpaceOnUse">
<stop stop-color="#1A73E8"/>
<stop offset="0.9999" stop-color="#1A73E8"/>
<stop offset="1" stop-color="#403F36"/>
</linearGradient>
</defs>
</svg>
